<?xml version="1.0" encoding="utf-8" standalone="no"?>
<!DOCTYPE svg PUBLIC "-//W3C//DTD SVG 1.1//EN"
  "http://www.w3.org/Graphics/SVG/1.1/DTD/svg11.dtd">
<svg xmlns:xlink="http://www.w3.org/1999/xlink" width="1440pt" height="576pt" viewBox="0 0 1440 576" xmlns="http://www.w3.org/2000/svg" version="1.1">
 <metadata>
  <rdf:RDF xmlns:dc="http://purl.org/dc/elements/1.1/" xmlns:cc="http://creativecommons.org/ns#" xmlns:rdf="http://www.w3.org/1999/02/22-rdf-syntax-ns#">
   <cc:Work>
    <dc:type rdf:resource="http://purl.org/dc/dcmitype/StillImage"/>
    <dc:date>2023-09-25T11:05:15.812903</dc:date>
    <dc:format>image/svg+xml</dc:format>
    <dc:creator>
     <cc:Agent>
      <dc:title>Matplotlib v3.5.2, https://matplotlib.org/</dc:title>
     </cc:Agent>
    </dc:creator>
   </cc:Work>
  </rdf:RDF>
 </metadata>
 <defs>
  <style type="text/css">*{stroke-linejoin: round; stroke-linecap: butt}</style>
 </defs>
 <g id="figure_1">
  <g id="patch_1">
   <path d="M 0 576 
L 1440 576 
L 1440 0 
L 0 0 
z
" style="fill: #ffffff"/>
  </g>
  <g id="axes_1">
   <g id="patch_2">
    <path d="M 180 512.64 
L 1296 512.64 
L 1296 69.12 
L 180 69.12 
z
" style="fill: #ffffff"/>
   </g>
   <g id="patch_3">
    <path d="M 202.32 466.92862 
L 220.176 466.92862 
L 220.176 466.241064 
L 202.32 466.241064 
z
" clip-path="url(#p833f5824b0)" style="fill: #3274a1"/>
   </g>
   <g id="patch_4">
    <path d="M 425.52 466.92862 
L 443.376 466.92862 
L 443.376 458.090209 
L 425.52 458.090209 
z
" clip-path="url(#p833f5824b0)" style="fill: #3274a1"/>
   </g>
   <g id="patch_5">
    <path d="M 648.72 466.92862 
L 666.576 466.92862 
L 666.576 457.340039 
L 648.72 457.340039 
z
" clip-path="url(#p833f5824b0)" style="fill: #3274a1"/>
   </g>
   <g id="patch_6">
    <path d="M 871.92 466.92862 
L 889.776 466.92862 
L 889.776 459.878379 
L 871.92 459.878379 
z
" clip-path="url(#p833f5824b0)" style="fill: #3274a1"/>
   </g>
   <g id="patch_7">
    <path d="M 1095.12 466.92862 
L 1112.976 466.92862 
L 1112.976 465.244544 
L 1095.12 465.244544 
z
" clip-path="url(#p833f5824b0)" style="fill: #3274a1"/>
   </g>
   <g id="patch_8">
    <path d="M 220.176 466.92862 
L 238.032 466.92862 
L 238.032 468.331929 
L 220.176 468.331929 
z
" clip-path="url(#p833f5824b0)" style="fill: #b5c8e1"/>
   </g>
   <g id="patch_9">
    <path d="M 443.376 466.92862 
L 461.232 466.92862 
L 461.232 449.041514 
L 443.376 449.041514 
z
" clip-path="url(#p833f5824b0)" style="fill: #b5c8e1"/>
   </g>
   <g id="patch_10">
    <path d="M 666.576 466.92862 
L 684.432 466.92862 
L 684.432 445.384788 
L 666.576 445.384788 
z
" clip-path="url(#p833f5824b0)" style="fill: #b5c8e1"/>
   </g>
   <g id="patch_11">
    <path d="M 889.776 466.92862 
L 907.632 466.92862 
L 907.632 446.421824 
L 889.776 446.421824 
z
" clip-path="url(#p833f5824b0)" style="fill: #b5c8e1"/>
   </g>
   <g id="patch_12">
    <path d="M 1112.976 466.92862 
L 1130.832 466.92862 
L 1130.832 462.911867 
L 1112.976 462.911867 
z
" clip-path="url(#p833f5824b0)" style="fill: #b5c8e1"/>
   </g>
   <g id="patch_13">
    <path d="M 238.032 466.92862 
L 255.888 466.92862 
L 255.888 427.325254 
L 238.032 427.325254 
z
" clip-path="url(#p833f5824b0)" style="fill: #e1812c"/>
   </g>
   <g id="patch_14">
    <path d="M 461.232 466.92862 
L 479.088 466.92862 
L 479.088 438.842278 
L 461.232 438.842278 
z
" clip-path="url(#p833f5824b0)" style="fill: #e1812c"/>
   </g>
   <g id="patch_15">
    <path d="M 684.432 466.92862 
L 702.288 466.92862 
L 702.288 454.202176 
L 684.432 454.202176 
z
" clip-path="url(#p833f5824b0)" style="fill: #e1812c"/>
   </g>
   <g id="patch_16">
    <path d="M 907.632 466.92862 
L 925.488 466.92862 
L 925.488 461.493767 
L 907.632 461.493767 
z
" clip-path="url(#p833f5824b0)" style="fill: #e1812c"/>
   </g>
   <g id="patch_17">
    <path d="M 1130.832 466.92862 
L 1148.688 466.92862 
L 1148.688 470.688486 
L 1130.832 470.688486 
z
" clip-path="url(#p833f5824b0)" style="fill: #e1812c"/>
   </g>
   <g id="patch_18">
    <path d="M 255.888 466.92862 
L 273.744 466.92862 
L 273.744 460.639957 
L 255.888 460.639957 
z
" clip-path="url(#p833f5824b0)" style="fill: #eebb89"/>
   </g>
   <g id="patch_19">
    <path d="M 479.088 466.92862 
L 496.944 466.92862 
L 496.944 462.653036 
L 479.088 462.653036 
z
" clip-path="url(#p833f5824b0)" style="fill: #eebb89"/>
   </g>
   <g id="patch_20">
    <path d="M 702.288 466.92862 
L 720.144 466.92862 
L 720.144 465.749164 
L 702.288 465.749164 
z
" clip-path="url(#p833f5824b0)" style="fill: #eebb89"/>
   </g>
   <g id="patch_21">
    <path d="M 925.488 466.92862 
L 943.344 466.92862 
L 943.344 471.193463 
L 925.488 471.193463 
z
" clip-path="url(#p833f5824b0)" style="fill: #eebb89"/>
   </g>
   <g id="patch_22">
    <path d="M 1148.688 466.92862 
L 1166.544 466.92862 
L 1166.544 471.203672 
L 1148.688 471.203672 
z
" clip-path="url(#p833f5824b0)" style="fill: #eebb89"/>
   </g>
   <g id="patch_23">
    <path d="M 273.744 466.92862 
L 291.6 466.92862 
L 291.6 431.99196 
L 273.744 431.99196 
z
" clip-path="url(#p833f5824b0)" style="fill: #3a923a"/>
   </g>
   <g id="patch_24">
    <path d="M 496.944 466.92862 
L 514.8 466.92862 
L 514.8 438.140477 
L 496.944 438.140477 
z
" clip-path="url(#p833f5824b0)" style="fill: #3a923a"/>
   </g>
   <g id="patch_25">
    <path d="M 720.144 466.92862 
L 738 466.92862 
L 738 454.537608 
L 720.144 454.537608 
z
" clip-path="url(#p833f5824b0)" style="fill: #3a923a"/>
   </g>
   <g id="patch_26">
    <path d="M 943.344 466.92862 
L 961.2 466.92862 
L 961.2 453.364088 
L 943.344 453.364088 
z
" clip-path="url(#p833f5824b0)" style="fill: #3a923a"/>
   </g>
   <g id="patch_27">
    <path d="M 1166.544 466.92862 
L 1184.4 466.92862 
L 1184.4 467.284165 
L 1166.544 467.284165 
z
" clip-path="url(#p833f5824b0)" style="fill: #3a923a"/>
   </g>
   <g id="patch_28">
    <path d="M 291.6 466.92862 
L 309.456 466.92862 
L 309.456 414.04474 
L 291.6 414.04474 
z
" clip-path="url(#p833f5824b0)" style="fill: #9fd495"/>
   </g>
   <g id="patch_29">
    <path d="M 514.8 466.92862 
L 532.656 466.92862 
L 532.656 449.053616 
L 514.8 449.053616 
z
" clip-path="url(#p833f5824b0)" style="fill: #9fd495"/>
   </g>
   <g id="patch_30">
    <path d="M 738 466.92862 
L 755.856 466.92862 
L 755.856 460.336661 
L 738 460.336661 
z
" clip-path="url(#p833f5824b0)" style="fill: #9fd495"/>
   </g>
   <g id="patch_31">
    <path d="M 961.2 466.92862 
L 979.056 466.92862 
L 979.056 468.572376 
L 961.2 468.572376 
z
" clip-path="url(#p833f5824b0)" style="fill: #9fd495"/>
   </g>
   <g id="patch_32">
    <path d="M 1184.4 466.92862 
L 1202.256 466.92862 
L 1202.256 465.324561 
L 1184.4 465.324561 
z
" clip-path="url(#p833f5824b0)" style="fill: #9fd495"/>
   </g>
   <g id="patch_33">
    <path d="M 309.456 466.92862 
L 327.312 466.92862 
L 327.312 101.333848 
L 309.456 101.333848 
z
" clip-path="url(#p833f5824b0)" style="fill: #c03d3e"/>
   </g>
   <g id="patch_34">
    <path d="M 532.656 466.92862 
L 550.512 466.92862 
L 550.512 376.712695 
L 532.656 376.712695 
z
" clip-path="url(#p833f5824b0)" style="fill: #c03d3e"/>
   </g>
   <g id="patch_35">
    <path d="M 755.856 466.92862 
L 773.712 466.92862 
L 773.712 445.823507 
L 755.856 445.823507 
z
" clip-path="url(#p833f5824b0)" style="fill: #c03d3e"/>
   </g>
   <g id="patch_36">
    <path d="M 979.056 466.92862 
L 996.912 466.92862 
L 996.912 460.683414 
L 979.056 460.683414 
z
" clip-path="url(#p833f5824b0)" style="fill: #c03d3e"/>
   </g>
   <g id="patch_37">
    <path d="M 1202.256 466.92862 
L 1220.112 466.92862 
L 1220.112 482.278514 
L 1202.256 482.278514 
z
" clip-path="url(#p833f5824b0)" style="fill: #c03d3e"/>
   </g>
   <g id="patch_38">
    <path d="M 327.312 466.92862 
L 345.168 466.92862 
L 345.168 417.584051 
L 327.312 417.584051 
z
" clip-path="url(#p833f5824b0)" style="fill: #f2a5a3"/>
   </g>
   <g id="patch_39">
    <path d="M 550.512 466.92862 
L 568.368 466.92862 
L 568.368 444.855993 
L 550.512 444.855993 
z
" clip-path="url(#p833f5824b0)" style="fill: #f2a5a3"/>
   </g>
   <g id="patch_40">
    <path d="M 773.712 466.92862 
L 791.568 466.92862 
L 791.568 456.747606 
L 773.712 456.747606 
z
" clip-path="url(#p833f5824b0)" style="fill: #f2a5a3"/>
   </g>
   <g id="patch_41">
    <path d="M 996.912 466.92862 
L 1014.768 466.92862 
L 1014.768 473.023399 
L 996.912 473.023399 
z
" clip-path="url(#p833f5824b0)" style="fill: #f2a5a3"/>
   </g>
   <g id="patch_42">
    <path d="M 1220.112 466.92862 
L 1237.968 466.92862 
L 1237.968 469.179248 
L 1220.112 469.179248 
z
" clip-path="url(#p833f5824b0)" style="fill: #f2a5a3"/>
   </g>
   <g id="patch_43">
    <path d="M 345.168 466.92862 
L 363.024 466.92862 
L 363.024 466.804776 
L 345.168 466.804776 
z
" clip-path="url(#p833f5824b0)" style="fill: #9372b2"/>
   </g>
   <g id="patch_44">
    <path d="M 568.368 466.92862 
L 586.224 466.92862 
L 586.224 448.027355 
L 568.368 448.027355 
z
" clip-path="url(#p833f5824b0)" style="fill: #9372b2"/>
   </g>
   <g id="patch_45">
    <path d="M 791.568 466.92862 
L 809.424 466.92862 
L 809.424 459.072373 
L 791.568 459.072373 
z
" clip-path="url(#p833f5824b0)" style="fill: #9372b2"/>
   </g>
   <g id="patch_46">
    <path d="M 1014.768 466.92862 
L 1032.624 466.92862 
L 1032.624 454.785226 
L 1014.768 454.785226 
z
" clip-path="url(#p833f5824b0)" style="fill: #9372b2"/>
   </g>
   <g id="patch_47">
    <path d="M 1237.968 466.92862 
L 1255.824 466.92862 
L 1255.824 468.401122 
L 1237.968 468.401122 
z
" clip-path="url(#p833f5824b0)" style="fill: #9372b2"/>
   </g>
   <g id="patch_48">
    <path d="M 363.024 466.92862 
L 380.88 466.92862 
L 380.88 185.948053 
L 363.024 185.948053 
z
" clip-path="url(#p833f5824b0)" style="fill: #c4b5d0"/>
   </g>
   <g id="patch_49">
    <path d="M 586.224 466.92862 
L 604.08 466.92862 
L 604.08 419.360809 
L 586.224 419.360809 
z
" clip-path="url(#p833f5824b0)" style="fill: #c4b5d0"/>
   </g>
   <g id="patch_50">
    <path d="M 809.424 466.92862 
L 827.28 466.92862 
L 827.28 468.870506 
L 809.424 468.870506 
z
" clip-path="url(#p833f5824b0)" style="fill: #c4b5d0"/>
   </g>
   <g id="patch_51">
    <path d="M 1032.624 466.92862 
L 1050.48 466.92862 
L 1050.48 456.991189 
L 1032.624 456.991189 
z
" clip-path="url(#p833f5824b0)" style="fill: #c4b5d0"/>
   </g>
   <g id="patch_52">
    <path d="M 1255.824 466.92862 
L 1273.68 466.92862 
L 1273.68 419.506615 
L 1255.824 419.506615 
z
" clip-path="url(#p833f5824b0)" style="fill: #c4b5d0"/>
   </g>
   <g id="matplotlib.axis_1">
    <g id="xtick_1">
     <g id="line2d_1">
      <defs>
       <path id="m89b05a898e" d="M 0 0 
L 0 3.5 
" style="stroke: #000000; stroke-width: 0.8"/>
      </defs>
      <g>
       <use xlink:href="#m89b05a898e" x="291.6" y="512.64" style="stroke: #000000; stroke-width: 0.8"/>
      </g>
     </g>
     <g id="text_1">
      <!-- owfa -->
      <g transform="translate(279.627344 527.238438)scale(0.1 -0.1)">
       <defs>
        <path id="DejaVuSans-6f" d="M 1959 3097 
Q 1497 3097 1228 2736 
Q 959 2375 959 1747 
Q 959 1119 1226 758 
Q 1494 397 1959 397 
Q 2419 397 2687 759 
Q 2956 1122 2956 1747 
Q 2956 2369 2687 2733 
Q 2419 3097 1959 3097 
z
M 1959 3584 
Q 2709 3584 3137 3096 
Q 3566 2609 3566 1747 
Q 3566 888 3137 398 
Q 2709 -91 1959 -91 
Q 1206 -91 779 398 
Q 353 888 353 1747 
Q 353 2609 779 3096 
Q 1206 3584 1959 3584 
z
" transform="scale(0.015625)"/>
        <path id="DejaVuSans-77" d="M 269 3500 
L 844 3500 
L 1563 769 
L 2278 3500 
L 2956 3500 
L 3675 769 
L 4391 3500 
L 4966 3500 
L 4050 0 
L 3372 0 
L 2619 2869 
L 1863 0 
L 1184 0 
L 269 3500 
z
" transform="scale(0.015625)"/>
        <path id="DejaVuSans-66" d="M 2375 4863 
L 2375 4384 
L 1825 4384 
Q 1516 4384 1395 4259 
Q 1275 4134 1275 3809 
L 1275 3500 
L 2222 3500 
L 2222 3053 
L 1275 3053 
L 1275 0 
L 697 0 
L 697 3053 
L 147 3053 
L 147 3500 
L 697 3500 
L 697 3744 
Q 697 4328 969 4595 
Q 1241 4863 1831 4863 
L 2375 4863 
z
" transform="scale(0.015625)"/>
        <path id="DejaVuSans-61" d="M 2194 1759 
Q 1497 1759 1228 1600 
Q 959 1441 959 1056 
Q 959 750 1161 570 
Q 1363 391 1709 391 
Q 2188 391 2477 730 
Q 2766 1069 2766 1631 
L 2766 1759 
L 2194 1759 
z
M 3341 1997 
L 3341 0 
L 2766 0 
L 2766 531 
Q 2569 213 2275 61 
Q 1981 -91 1556 -91 
Q 1019 -91 701 211 
Q 384 513 384 1019 
Q 384 1609 779 1909 
Q 1175 2209 1959 2209 
L 2766 2209 
L 2766 2266 
Q 2766 2663 2505 2880 
Q 2244 3097 1772 3097 
Q 1472 3097 1187 3025 
Q 903 2953 641 2809 
L 641 3341 
Q 956 3463 1253 3523 
Q 1550 3584 1831 3584 
Q 2591 3584 2966 3190 
Q 3341 2797 3341 1997 
z
" transform="scale(0.015625)"/>
       </defs>
       <use xlink:href="#DejaVuSans-6f"/>
       <use xlink:href="#DejaVuSans-77" x="61.181641"/>
       <use xlink:href="#DejaVuSans-66" x="142.96875"/>
       <use xlink:href="#DejaVuSans-61" x="178.173828"/>
      </g>
     </g>
    </g>
    <g id="xtick_2">
     <g id="line2d_2">
      <g>
       <use xlink:href="#m89b05a898e" x="514.8" y="512.64" style="stroke: #000000; stroke-width: 0.8"/>
      </g>
     </g>
     <g id="text_2">
      <!-- vwfa_1 -->
      <g transform="translate(497.246094 527.238438)scale(0.1 -0.1)">
       <defs>
        <path id="DejaVuSans-76" d="M 191 3500 
L 800 3500 
L 1894 563 
L 2988 3500 
L 3597 3500 
L 2284 0 
L 1503 0 
L 191 3500 
z
" transform="scale(0.015625)"/>
        <path id="DejaVuSans-5f" d="M 3263 -1063 
L 3263 -1509 
L -63 -1509 
L -63 -1063 
L 3263 -1063 
z
" transform="scale(0.015625)"/>
        <path id="DejaVuSans-31" d="M 794 531 
L 1825 531 
L 1825 4091 
L 703 3866 
L 703 4441 
L 1819 4666 
L 2450 4666 
L 2450 531 
L 3481 531 
L 3481 0 
L 794 0 
L 794 531 
z
" transform="scale(0.015625)"/>
       </defs>
       <use xlink:href="#DejaVuSans-76"/>
       <use xlink:href="#DejaVuSans-77" x="59.179688"/>
       <use xlink:href="#DejaVuSans-66" x="140.966797"/>
       <use xlink:href="#DejaVuSans-61" x="176.171875"/>
       <use xlink:href="#DejaVuSans-5f" x="237.451172"/>
       <use xlink:href="#DejaVuSans-31" x="287.451172"/>
      </g>
     </g>
    </g>
    <g id="xtick_3">
     <g id="line2d_3">
      <g>
       <use xlink:href="#m89b05a898e" x="738" y="512.64" style="stroke: #000000; stroke-width: 0.8"/>
      </g>
     </g>
     <g id="text_3">
      <!-- vwfa_2 -->
      <g transform="translate(720.446094 527.238438)scale(0.1 -0.1)">
       <defs>
        <path id="DejaVuSans-32" d="M 1228 531 
L 3431 531 
L 3431 0 
L 469 0 
L 469 531 
Q 828 903 1448 1529 
Q 2069 2156 2228 2338 
Q 2531 2678 2651 2914 
Q 2772 3150 2772 3378 
Q 2772 3750 2511 3984 
Q 2250 4219 1831 4219 
Q 1534 4219 1204 4116 
Q 875 4013 500 3803 
L 500 4441 
Q 881 4594 1212 4672 
Q 1544 4750 1819 4750 
Q 2544 4750 2975 4387 
Q 3406 4025 3406 3419 
Q 3406 3131 3298 2873 
Q 3191 2616 2906 2266 
Q 2828 2175 2409 1742 
Q 1991 1309 1228 531 
z
" transform="scale(0.015625)"/>
       </defs>
       <use xlink:href="#DejaVuSans-76"/>
       <use xlink:href="#DejaVuSans-77" x="59.179688"/>
       <use xlink:href="#DejaVuSans-66" x="140.966797"/>
       <use xlink:href="#DejaVuSans-61" x="176.171875"/>
       <use xlink:href="#DejaVuSans-5f" x="237.451172"/>
       <use xlink:href="#DejaVuSans-32" x="287.451172"/>
      </g>
     </g>
    </g>
    <g id="xtick_4">
     <g id="line2d_4">
      <g>
       <use xlink:href="#m89b05a898e" x="961.2" y="512.64" style="stroke: #000000; stroke-width: 0.8"/>
      </g>
     </g>
     <g id="text_4">
      <!-- mfs_words -->
      <g transform="translate(934.569531 527.238438)scale(0.1 -0.1)">
       <defs>
        <path id="DejaVuSans-6d" d="M 3328 2828 
Q 3544 3216 3844 3400 
Q 4144 3584 4550 3584 
Q 5097 3584 5394 3201 
Q 5691 2819 5691 2113 
L 5691 0 
L 5113 0 
L 5113 2094 
Q 5113 2597 4934 2840 
Q 4756 3084 4391 3084 
Q 3944 3084 3684 2787 
Q 3425 2491 3425 1978 
L 3425 0 
L 2847 0 
L 2847 2094 
Q 2847 2600 2669 2842 
Q 2491 3084 2119 3084 
Q 1678 3084 1418 2786 
Q 1159 2488 1159 1978 
L 1159 0 
L 581 0 
L 581 3500 
L 1159 3500 
L 1159 2956 
Q 1356 3278 1631 3431 
Q 1906 3584 2284 3584 
Q 2666 3584 2933 3390 
Q 3200 3197 3328 2828 
z
" transform="scale(0.015625)"/>
        <path id="DejaVuSans-73" d="M 2834 3397 
L 2834 2853 
Q 2591 2978 2328 3040 
Q 2066 3103 1784 3103 
Q 1356 3103 1142 2972 
Q 928 2841 928 2578 
Q 928 2378 1081 2264 
Q 1234 2150 1697 2047 
L 1894 2003 
Q 2506 1872 2764 1633 
Q 3022 1394 3022 966 
Q 3022 478 2636 193 
Q 2250 -91 1575 -91 
Q 1294 -91 989 -36 
Q 684 19 347 128 
L 347 722 
Q 666 556 975 473 
Q 1284 391 1588 391 
Q 1994 391 2212 530 
Q 2431 669 2431 922 
Q 2431 1156 2273 1281 
Q 2116 1406 1581 1522 
L 1381 1569 
Q 847 1681 609 1914 
Q 372 2147 372 2553 
Q 372 3047 722 3315 
Q 1072 3584 1716 3584 
Q 2034 3584 2315 3537 
Q 2597 3491 2834 3397 
z
" transform="scale(0.015625)"/>
        <path id="DejaVuSans-72" d="M 2631 2963 
Q 2534 3019 2420 3045 
Q 2306 3072 2169 3072 
Q 1681 3072 1420 2755 
Q 1159 2438 1159 1844 
L 1159 0 
L 581 0 
L 581 3500 
L 1159 3500 
L 1159 2956 
Q 1341 3275 1631 3429 
Q 1922 3584 2338 3584 
Q 2397 3584 2469 3576 
Q 2541 3569 2628 3553 
L 2631 2963 
z
" transform="scale(0.015625)"/>
        <path id="DejaVuSans-64" d="M 2906 2969 
L 2906 4863 
L 3481 4863 
L 3481 0 
L 2906 0 
L 2906 525 
Q 2725 213 2448 61 
Q 2172 -91 1784 -91 
Q 1150 -91 751 415 
Q 353 922 353 1747 
Q 353 2572 751 3078 
Q 1150 3584 1784 3584 
Q 2172 3584 2448 3432 
Q 2725 3281 2906 2969 
z
M 947 1747 
Q 947 1113 1208 752 
Q 1469 391 1925 391 
Q 2381 391 2643 752 
Q 2906 1113 2906 1747 
Q 2906 2381 2643 2742 
Q 2381 3103 1925 3103 
Q 1469 3103 1208 2742 
Q 947 2381 947 1747 
z
" transform="scale(0.015625)"/>
       </defs>
       <use xlink:href="#DejaVuSans-6d"/>
       <use xlink:href="#DejaVuSans-66" x="97.412109"/>
       <use xlink:href="#DejaVuSans-73" x="132.617188"/>
       <use xlink:href="#DejaVuSans-5f" x="184.716797"/>
       <use xlink:href="#DejaVuSans-77" x="234.716797"/>
       <use xlink:href="#DejaVuSans-6f" x="316.503906"/>
       <use xlink:href="#DejaVuSans-72" x="377.685547"/>
       <use xlink:href="#DejaVuSans-64" x="417.048828"/>
       <use xlink:href="#DejaVuSans-73" x="480.525391"/>
      </g>
     </g>
    </g>
    <g id="xtick_5">
     <g id="line2d_5">
      <g>
       <use xlink:href="#m89b05a898e" x="1184.4" y="512.64" style="stroke: #000000; stroke-width: 0.8"/>
      </g>
     </g>
     <g id="text_5">
      <!-- mtl_words -->
      <g transform="translate(1158.785156 527.238438)scale(0.1 -0.1)">
       <defs>
        <path id="DejaVuSans-74" d="M 1172 4494 
L 1172 3500 
L 2356 3500 
L 2356 3053 
L 1172 3053 
L 1172 1153 
Q 1172 725 1289 603 
Q 1406 481 1766 481 
L 2356 481 
L 2356 0 
L 1766 0 
Q 1100 0 847 248 
Q 594 497 594 1153 
L 594 3053 
L 172 3053 
L 172 3500 
L 594 3500 
L 594 4494 
L 1172 4494 
z
" transform="scale(0.015625)"/>
        <path id="DejaVuSans-6c" d="M 603 4863 
L 1178 4863 
L 1178 0 
L 603 0 
L 603 4863 
z
" transform="scale(0.015625)"/>
       </defs>
       <use xlink:href="#DejaVuSans-6d"/>
       <use xlink:href="#DejaVuSans-74" x="97.412109"/>
       <use xlink:href="#DejaVuSans-6c" x="136.621094"/>
       <use xlink:href="#DejaVuSans-5f" x="164.404297"/>
       <use xlink:href="#DejaVuSans-77" x="214.404297"/>
       <use xlink:href="#DejaVuSans-6f" x="296.191406"/>
       <use xlink:href="#DejaVuSans-72" x="357.373047"/>
       <use xlink:href="#DejaVuSans-64" x="396.736328"/>
       <use xlink:href="#DejaVuSans-73" x="460.212891"/>
      </g>
     </g>
    </g>
    <g id="text_6">
     <!-- ROI -->
     <g transform="translate(729.114844 541.194687)scale(0.1 -0.1)">
      <defs>
       <path id="DejaVuSans-52" d="M 2841 2188 
Q 3044 2119 3236 1894 
Q 3428 1669 3622 1275 
L 4263 0 
L 3584 0 
L 2988 1197 
Q 2756 1666 2539 1819 
Q 2322 1972 1947 1972 
L 1259 1972 
L 1259 0 
L 628 0 
L 628 4666 
L 2053 4666 
Q 2853 4666 3247 4331 
Q 3641 3997 3641 3322 
Q 3641 2881 3436 2590 
Q 3231 2300 2841 2188 
z
M 1259 4147 
L 1259 2491 
L 2053 2491 
Q 2509 2491 2742 2702 
Q 2975 2913 2975 3322 
Q 2975 3731 2742 3939 
Q 2509 4147 2053 4147 
L 1259 4147 
z
" transform="scale(0.015625)"/>
       <path id="DejaVuSans-4f" d="M 2522 4238 
Q 1834 4238 1429 3725 
Q 1025 3213 1025 2328 
Q 1025 1447 1429 934 
Q 1834 422 2522 422 
Q 3209 422 3611 934 
Q 4013 1447 4013 2328 
Q 4013 3213 3611 3725 
Q 3209 4238 2522 4238 
z
M 2522 4750 
Q 3503 4750 4090 4092 
Q 4678 3434 4678 2328 
Q 4678 1225 4090 567 
Q 3503 -91 2522 -91 
Q 1538 -91 948 565 
Q 359 1222 359 2328 
Q 359 3434 948 4092 
Q 1538 4750 2522 4750 
z
" transform="scale(0.015625)"/>
       <path id="DejaVuSans-49" d="M 628 4666 
L 1259 4666 
L 1259 0 
L 628 0 
L 628 4666 
z
" transform="scale(0.015625)"/>
      </defs>
      <use xlink:href="#DejaVuSans-52"/>
      <use xlink:href="#DejaVuSans-4f" x="69.482422"/>
      <use xlink:href="#DejaVuSans-49" x="148.193359"/>
     </g>
    </g>
   </g>
   <g id="matplotlib.axis_2">
    <g id="ytick_1">
     <g id="line2d_6">
      <defs>
       <path id="m2053d4ad81" d="M 0 0 
L -3.5 0 
" style="stroke: #000000; stroke-width: 0.8"/>
      </defs>
      <g>
       <use xlink:href="#m2053d4ad81" x="180" y="466.92862" style="stroke: #000000; stroke-width: 0.8"/>
      </g>
     </g>
     <g id="text_7">
      <!-- 0.00 -->
      <g transform="translate(150.734375 470.727838)scale(0.1 -0.1)">
       <defs>
        <path id="DejaVuSans-30" d="M 2034 4250 
Q 1547 4250 1301 3770 
Q 1056 3291 1056 2328 
Q 1056 1369 1301 889 
Q 1547 409 2034 409 
Q 2525 409 2770 889 
Q 3016 1369 3016 2328 
Q 3016 3291 2770 3770 
Q 2525 4250 2034 4250 
z
M 2034 4750 
Q 2819 4750 3233 4129 
Q 3647 3509 3647 2328 
Q 3647 1150 3233 529 
Q 2819 -91 2034 -91 
Q 1250 -91 836 529 
Q 422 1150 422 2328 
Q 422 3509 836 4129 
Q 1250 4750 2034 4750 
z
" transform="scale(0.015625)"/>
        <path id="DejaVuSans-2e" d="M 684 794 
L 1344 794 
L 1344 0 
L 684 0 
L 684 794 
z
" transform="scale(0.015625)"/>
       </defs>
       <use xlink:href="#DejaVuSans-30"/>
       <use xlink:href="#DejaVuSans-2e" x="63.623047"/>
       <use xlink:href="#DejaVuSans-30" x="95.410156"/>
       <use xlink:href="#DejaVuSans-30" x="159.033203"/>
      </g>
     </g>
    </g>
    <g id="ytick_2">
     <g id="line2d_7">
      <g>
       <use xlink:href="#m2053d4ad81" x="180" y="406.893812" style="stroke: #000000; stroke-width: 0.8"/>
      </g>
     </g>
     <g id="text_8">
      <!-- 0.02 -->
      <g transform="translate(150.734375 410.69303)scale(0.1 -0.1)">
       <use xlink:href="#DejaVuSans-30"/>
       <use xlink:href="#DejaVuSans-2e" x="63.623047"/>
       <use xlink:href="#DejaVuSans-30" x="95.410156"/>
       <use xlink:href="#DejaVuSans-32" x="159.033203"/>
      </g>
     </g>
    </g>
    <g id="ytick_3">
     <g id="line2d_8">
      <g>
       <use xlink:href="#m2053d4ad81" x="180" y="346.859003" style="stroke: #000000; stroke-width: 0.8"/>
      </g>
     </g>
     <g id="text_9">
      <!-- 0.04 -->
      <g transform="translate(150.734375 350.658222)scale(0.1 -0.1)">
       <defs>
        <path id="DejaVuSans-34" d="M 2419 4116 
L 825 1625 
L 2419 1625 
L 2419 4116 
z
M 2253 4666 
L 3047 4666 
L 3047 1625 
L 3713 1625 
L 3713 1100 
L 3047 1100 
L 3047 0 
L 2419 0 
L 2419 1100 
L 313 1100 
L 313 1709 
L 2253 4666 
z
" transform="scale(0.015625)"/>
       </defs>
       <use xlink:href="#DejaVuSans-30"/>
       <use xlink:href="#DejaVuSans-2e" x="63.623047"/>
       <use xlink:href="#DejaVuSans-30" x="95.410156"/>
       <use xlink:href="#DejaVuSans-34" x="159.033203"/>
      </g>
     </g>
    </g>
    <g id="ytick_4">
     <g id="line2d_9">
      <g>
       <use xlink:href="#m2053d4ad81" x="180" y="286.824195" style="stroke: #000000; stroke-width: 0.8"/>
      </g>
     </g>
     <g id="text_10">
      <!-- 0.06 -->
      <g transform="translate(150.734375 290.623414)scale(0.1 -0.1)">
       <defs>
        <path id="DejaVuSans-36" d="M 2113 2584 
Q 1688 2584 1439 2293 
Q 1191 2003 1191 1497 
Q 1191 994 1439 701 
Q 1688 409 2113 409 
Q 2538 409 2786 701 
Q 3034 994 3034 1497 
Q 3034 2003 2786 2293 
Q 2538 2584 2113 2584 
z
M 3366 4563 
L 3366 3988 
Q 3128 4100 2886 4159 
Q 2644 4219 2406 4219 
Q 1781 4219 1451 3797 
Q 1122 3375 1075 2522 
Q 1259 2794 1537 2939 
Q 1816 3084 2150 3084 
Q 2853 3084 3261 2657 
Q 3669 2231 3669 1497 
Q 3669 778 3244 343 
Q 2819 -91 2113 -91 
Q 1303 -91 875 529 
Q 447 1150 447 2328 
Q 447 3434 972 4092 
Q 1497 4750 2381 4750 
Q 2619 4750 2861 4703 
Q 3103 4656 3366 4563 
z
" transform="scale(0.015625)"/>
       </defs>
       <use xlink:href="#DejaVuSans-30"/>
       <use xlink:href="#DejaVuSans-2e" x="63.623047"/>
       <use xlink:href="#DejaVuSans-30" x="95.410156"/>
       <use xlink:href="#DejaVuSans-36" x="159.033203"/>
      </g>
     </g>
    </g>
    <g id="ytick_5">
     <g id="line2d_10">
      <g>
       <use xlink:href="#m2053d4ad81" x="180" y="226.789387" style="stroke: #000000; stroke-width: 0.8"/>
      </g>
     </g>
     <g id="text_11">
      <!-- 0.08 -->
      <g transform="translate(150.734375 230.588606)scale(0.1 -0.1)">
       <defs>
        <path id="DejaVuSans-38" d="M 2034 2216 
Q 1584 2216 1326 1975 
Q 1069 1734 1069 1313 
Q 1069 891 1326 650 
Q 1584 409 2034 409 
Q 2484 409 2743 651 
Q 3003 894 3003 1313 
Q 3003 1734 2745 1975 
Q 2488 2216 2034 2216 
z
M 1403 2484 
Q 997 2584 770 2862 
Q 544 3141 544 3541 
Q 544 4100 942 4425 
Q 1341 4750 2034 4750 
Q 2731 4750 3128 4425 
Q 3525 4100 3525 3541 
Q 3525 3141 3298 2862 
Q 3072 2584 2669 2484 
Q 3125 2378 3379 2068 
Q 3634 1759 3634 1313 
Q 3634 634 3220 271 
Q 2806 -91 2034 -91 
Q 1263 -91 848 271 
Q 434 634 434 1313 
Q 434 1759 690 2068 
Q 947 2378 1403 2484 
z
M 1172 3481 
Q 1172 3119 1398 2916 
Q 1625 2713 2034 2713 
Q 2441 2713 2670 2916 
Q 2900 3119 2900 3481 
Q 2900 3844 2670 4047 
Q 2441 4250 2034 4250 
Q 1625 4250 1398 4047 
Q 1172 3844 1172 3481 
z
" transform="scale(0.015625)"/>
       </defs>
       <use xlink:href="#DejaVuSans-30"/>
       <use xlink:href="#DejaVuSans-2e" x="63.623047"/>
       <use xlink:href="#DejaVuSans-30" x="95.410156"/>
       <use xlink:href="#DejaVuSans-38" x="159.033203"/>
      </g>
     </g>
    </g>
    <g id="ytick_6">
     <g id="line2d_11">
      <g>
       <use xlink:href="#m2053d4ad81" x="180" y="166.754579" style="stroke: #000000; stroke-width: 0.8"/>
      </g>
     </g>
     <g id="text_12">
      <!-- 0.10 -->
      <g transform="translate(150.734375 170.553798)scale(0.1 -0.1)">
       <use xlink:href="#DejaVuSans-30"/>
       <use xlink:href="#DejaVuSans-2e" x="63.623047"/>
       <use xlink:href="#DejaVuSans-31" x="95.410156"/>
       <use xlink:href="#DejaVuSans-30" x="159.033203"/>
      </g>
     </g>
    </g>
    <g id="ytick_7">
     <g id="line2d_12">
      <g>
       <use xlink:href="#m2053d4ad81" x="180" y="106.719771" style="stroke: #000000; stroke-width: 0.8"/>
      </g>
     </g>
     <g id="text_13">
      <!-- 0.12 -->
      <g transform="translate(150.734375 110.51899)scale(0.1 -0.1)">
       <use xlink:href="#DejaVuSans-30"/>
       <use xlink:href="#DejaVuSans-2e" x="63.623047"/>
       <use xlink:href="#DejaVuSans-31" x="95.410156"/>
       <use xlink:href="#DejaVuSans-32" x="159.033203"/>
      </g>
     </g>
    </g>
    <g id="text_14">
     <!-- Correlation coefficient -->
     <g transform="translate(144.654687 346.176094)rotate(-90)scale(0.1 -0.1)">
      <defs>
       <path id="DejaVuSans-43" d="M 4122 4306 
L 4122 3641 
Q 3803 3938 3442 4084 
Q 3081 4231 2675 4231 
Q 1875 4231 1450 3742 
Q 1025 3253 1025 2328 
Q 1025 1406 1450 917 
Q 1875 428 2675 428 
Q 3081 428 3442 575 
Q 3803 722 4122 1019 
L 4122 359 
Q 3791 134 3420 21 
Q 3050 -91 2638 -91 
Q 1578 -91 968 557 
Q 359 1206 359 2328 
Q 359 3453 968 4101 
Q 1578 4750 2638 4750 
Q 3056 4750 3426 4639 
Q 3797 4528 4122 4306 
z
" transform="scale(0.015625)"/>
       <path id="DejaVuSans-65" d="M 3597 1894 
L 3597 1613 
L 953 1613 
Q 991 1019 1311 708 
Q 1631 397 2203 397 
Q 2534 397 2845 478 
Q 3156 559 3463 722 
L 3463 178 
Q 3153 47 2828 -22 
Q 2503 -91 2169 -91 
Q 1331 -91 842 396 
Q 353 884 353 1716 
Q 353 2575 817 3079 
Q 1281 3584 2069 3584 
Q 2775 3584 3186 3129 
Q 3597 2675 3597 1894 
z
M 3022 2063 
Q 3016 2534 2758 2815 
Q 2500 3097 2075 3097 
Q 1594 3097 1305 2825 
Q 1016 2553 972 2059 
L 3022 2063 
z
" transform="scale(0.015625)"/>
       <path id="DejaVuSans-69" d="M 603 3500 
L 1178 3500 
L 1178 0 
L 603 0 
L 603 3500 
z
M 603 4863 
L 1178 4863 
L 1178 4134 
L 603 4134 
L 603 4863 
z
" transform="scale(0.015625)"/>
       <path id="DejaVuSans-6e" d="M 3513 2113 
L 3513 0 
L 2938 0 
L 2938 2094 
Q 2938 2591 2744 2837 
Q 2550 3084 2163 3084 
Q 1697 3084 1428 2787 
Q 1159 2491 1159 1978 
L 1159 0 
L 581 0 
L 581 3500 
L 1159 3500 
L 1159 2956 
Q 1366 3272 1645 3428 
Q 1925 3584 2291 3584 
Q 2894 3584 3203 3211 
Q 3513 2838 3513 2113 
z
" transform="scale(0.015625)"/>
       <path id="DejaVuSans-20" transform="scale(0.015625)"/>
       <path id="DejaVuSans-63" d="M 3122 3366 
L 3122 2828 
Q 2878 2963 2633 3030 
Q 2388 3097 2138 3097 
Q 1578 3097 1268 2742 
Q 959 2388 959 1747 
Q 959 1106 1268 751 
Q 1578 397 2138 397 
Q 2388 397 2633 464 
Q 2878 531 3122 666 
L 3122 134 
Q 2881 22 2623 -34 
Q 2366 -91 2075 -91 
Q 1284 -91 818 406 
Q 353 903 353 1747 
Q 353 2603 823 3093 
Q 1294 3584 2113 3584 
Q 2378 3584 2631 3529 
Q 2884 3475 3122 3366 
z
" transform="scale(0.015625)"/>
      </defs>
      <use xlink:href="#DejaVuSans-43"/>
      <use xlink:href="#DejaVuSans-6f" x="69.824219"/>
      <use xlink:href="#DejaVuSans-72" x="131.005859"/>
      <use xlink:href="#DejaVuSans-72" x="170.369141"/>
      <use xlink:href="#DejaVuSans-65" x="209.232422"/>
      <use xlink:href="#DejaVuSans-6c" x="270.755859"/>
      <use xlink:href="#DejaVuSans-61" x="298.539062"/>
      <use xlink:href="#DejaVuSans-74" x="359.818359"/>
      <use xlink:href="#DejaVuSans-69" x="399.027344"/>
      <use xlink:href="#DejaVuSans-6f" x="426.810547"/>
      <use xlink:href="#DejaVuSans-6e" x="487.992188"/>
      <use xlink:href="#DejaVuSans-20" x="551.371094"/>
      <use xlink:href="#DejaVuSans-63" x="583.158203"/>
      <use xlink:href="#DejaVuSans-6f" x="638.138672"/>
      <use xlink:href="#DejaVuSans-65" x="699.320312"/>
      <use xlink:href="#DejaVuSans-66" x="760.84375"/>
      <use xlink:href="#DejaVuSans-66" x="796.048828"/>
      <use xlink:href="#DejaVuSans-69" x="831.253906"/>
      <use xlink:href="#DejaVuSans-63" x="859.037109"/>
      <use xlink:href="#DejaVuSans-69" x="914.017578"/>
      <use xlink:href="#DejaVuSans-65" x="941.800781"/>
      <use xlink:href="#DejaVuSans-6e" x="1003.324219"/>
      <use xlink:href="#DejaVuSans-74" x="1066.703125"/>
     </g>
    </g>
   </g>
   <g id="line2d_13">
    <path d="M 211.248 467.409042 
L 211.248 465.094831 
" clip-path="url(#p833f5824b0)" style="fill: none; stroke: #424242; stroke-width: 2.7; stroke-linecap: square"/>
   </g>
   <g id="line2d_14">
    <path d="M 434.448 461.962112 
L 434.448 454.425979 
" clip-path="url(#p833f5824b0)" style="fill: none; stroke: #424242; stroke-width: 2.7; stroke-linecap: square"/>
   </g>
   <g id="line2d_15">
    <path d="M 657.648 459.870365 
L 657.648 454.517125 
" clip-path="url(#p833f5824b0)" style="fill: none; stroke: #424242; stroke-width: 2.7; stroke-linecap: square"/>
   </g>
   <g id="line2d_16">
    <path d="M 880.848 462.145886 
L 880.848 457.567245 
" clip-path="url(#p833f5824b0)" style="fill: none; stroke: #424242; stroke-width: 2.7; stroke-linecap: square"/>
   </g>
   <g id="line2d_17">
    <path d="M 1104.048 469.125297 
L 1104.048 461.141552 
" clip-path="url(#p833f5824b0)" style="fill: none; stroke: #424242; stroke-width: 2.7; stroke-linecap: square"/>
   </g>
   <g id="line2d_18">
    <path d="M 229.104 469.468541 
L 229.104 467.211815 
" clip-path="url(#p833f5824b0)" style="fill: none; stroke: #424242; stroke-width: 2.7; stroke-linecap: square"/>
   </g>
   <g id="line2d_19">
    <path d="M 452.304 452.832394 
L 452.304 444.680457 
" clip-path="url(#p833f5824b0)" style="fill: none; stroke: #424242; stroke-width: 2.7; stroke-linecap: square"/>
   </g>
   <g id="line2d_20">
    <path d="M 675.504 447.826851 
L 675.504 442.236942 
" clip-path="url(#p833f5824b0)" style="fill: none; stroke: #424242; stroke-width: 2.7; stroke-linecap: square"/>
   </g>
   <g id="line2d_21">
    <path d="M 898.704 449.167023 
L 898.704 443.517979 
" clip-path="url(#p833f5824b0)" style="fill: none; stroke: #424242; stroke-width: 2.7; stroke-linecap: square"/>
   </g>
   <g id="line2d_22">
    <path d="M 1121.904 466.944903 
L 1121.904 459.276037 
" clip-path="url(#p833f5824b0)" style="fill: none; stroke: #424242; stroke-width: 2.7; stroke-linecap: square"/>
   </g>
   <g id="line2d_23">
    <path d="M 246.96 429.017885 
L 246.96 425.594812 
" clip-path="url(#p833f5824b0)" style="fill: none; stroke: #424242; stroke-width: 2.7; stroke-linecap: square"/>
   </g>
   <g id="line2d_24">
    <path d="M 470.16 442.413898 
L 470.16 434.93102 
" clip-path="url(#p833f5824b0)" style="fill: none; stroke: #424242; stroke-width: 2.7; stroke-linecap: square"/>
   </g>
   <g id="line2d_25">
    <path d="M 693.36 456.875018 
L 693.36 451.092678 
" clip-path="url(#p833f5824b0)" style="fill: none; stroke: #424242; stroke-width: 2.7; stroke-linecap: square"/>
   </g>
   <g id="line2d_26">
    <path d="M 916.56 464.033788 
L 916.56 459.054521 
" clip-path="url(#p833f5824b0)" style="fill: none; stroke: #424242; stroke-width: 2.7; stroke-linecap: square"/>
   </g>
   <g id="line2d_27">
    <path d="M 1139.76 473.916087 
L 1139.76 467.064084 
" clip-path="url(#p833f5824b0)" style="fill: none; stroke: #424242; stroke-width: 2.7; stroke-linecap: square"/>
   </g>
   <g id="line2d_28">
    <path d="M 264.816 461.828906 
L 264.816 459.482803 
" clip-path="url(#p833f5824b0)" style="fill: none; stroke: #424242; stroke-width: 2.7; stroke-linecap: square"/>
   </g>
   <g id="line2d_29">
    <path d="M 488.016 466.581072 
L 488.016 458.647331 
" clip-path="url(#p833f5824b0)" style="fill: none; stroke: #424242; stroke-width: 2.7; stroke-linecap: square"/>
   </g>
   <g id="line2d_30">
    <path d="M 711.216 468.41076 
L 711.216 462.910416 
" clip-path="url(#p833f5824b0)" style="fill: none; stroke: #424242; stroke-width: 2.7; stroke-linecap: square"/>
   </g>
   <g id="line2d_31">
    <path d="M 934.416 473.664618 
L 934.416 468.513832 
" clip-path="url(#p833f5824b0)" style="fill: none; stroke: #424242; stroke-width: 2.7; stroke-linecap: square"/>
   </g>
   <g id="line2d_32">
    <path d="M 1157.616 475.238953 
L 1157.616 467.149218 
" clip-path="url(#p833f5824b0)" style="fill: none; stroke: #424242; stroke-width: 2.7; stroke-linecap: square"/>
   </g>
   <g id="line2d_33">
    <path d="M 282.672 433.376285 
L 282.672 430.601027 
" clip-path="url(#p833f5824b0)" style="fill: none; stroke: #424242; stroke-width: 2.7; stroke-linecap: square"/>
   </g>
   <g id="line2d_34">
    <path d="M 505.872 441.913601 
L 505.872 433.916624 
" clip-path="url(#p833f5824b0)" style="fill: none; stroke: #424242; stroke-width: 2.7; stroke-linecap: square"/>
   </g>
   <g id="line2d_35">
    <path d="M 729.072 456.861053 
L 729.072 451.730725 
" clip-path="url(#p833f5824b0)" style="fill: none; stroke: #424242; stroke-width: 2.7; stroke-linecap: square"/>
   </g>
   <g id="line2d_36">
    <path d="M 952.272 455.881338 
L 952.272 451.006423 
" clip-path="url(#p833f5824b0)" style="fill: none; stroke: #424242; stroke-width: 2.7; stroke-linecap: square"/>
   </g>
   <g id="line2d_37">
    <path d="M 1175.472 471.45835 
L 1175.472 463.188441 
" clip-path="url(#p833f5824b0)" style="fill: none; stroke: #424242; stroke-width: 2.7; stroke-linecap: square"/>
   </g>
   <g id="line2d_38">
    <path d="M 300.528 415.857943 
L 300.528 412.127962 
" clip-path="url(#p833f5824b0)" style="fill: none; stroke: #424242; stroke-width: 2.7; stroke-linecap: square"/>
   </g>
   <g id="line2d_39">
    <path d="M 523.728 452.87461 
L 523.728 445.026508 
" clip-path="url(#p833f5824b0)" style="fill: none; stroke: #424242; stroke-width: 2.7; stroke-linecap: square"/>
   </g>
   <g id="line2d_40">
    <path d="M 746.928 463.064982 
L 746.928 457.4124 
" clip-path="url(#p833f5824b0)" style="fill: none; stroke: #424242; stroke-width: 2.7; stroke-linecap: square"/>
   </g>
   <g id="line2d_41">
    <path d="M 970.128 470.932027 
L 970.128 466.149604 
" clip-path="url(#p833f5824b0)" style="fill: none; stroke: #424242; stroke-width: 2.7; stroke-linecap: square"/>
   </g>
   <g id="line2d_42">
    <path d="M 1193.328 469.697167 
L 1193.328 461.472936 
" clip-path="url(#p833f5824b0)" style="fill: none; stroke: #424242; stroke-width: 2.7; stroke-linecap: square"/>
   </g>
   <g id="line2d_43">
    <path d="M 318.384 114.235597 
L 318.384 89.28 
" clip-path="url(#p833f5824b0)" style="fill: none; stroke: #424242; stroke-width: 2.7; stroke-linecap: square"/>
   </g>
   <g id="line2d_44">
    <path d="M 541.584 382.864356 
L 541.584 369.937352 
" clip-path="url(#p833f5824b0)" style="fill: none; stroke: #424242; stroke-width: 2.7; stroke-linecap: square"/>
   </g>
   <g id="line2d_45">
    <path d="M 764.784 449.832252 
L 764.784 441.803978 
" clip-path="url(#p833f5824b0)" style="fill: none; stroke: #424242; stroke-width: 2.7; stroke-linecap: square"/>
   </g>
   <g id="line2d_46">
    <path d="M 987.984 467.73362 
L 987.984 453.757275 
" clip-path="url(#p833f5824b0)" style="fill: none; stroke: #424242; stroke-width: 2.7; stroke-linecap: square"/>
   </g>
   <g id="line2d_47">
    <path d="M 1211.184 492.48 
L 1211.184 473.017104 
" clip-path="url(#p833f5824b0)" style="fill: none; stroke: #424242; stroke-width: 2.7; stroke-linecap: square"/>
   </g>
   <g id="line2d_48">
    <path d="M 336.24 419.294138 
L 336.24 415.845899 
" clip-path="url(#p833f5824b0)" style="fill: none; stroke: #424242; stroke-width: 2.7; stroke-linecap: square"/>
   </g>
   <g id="line2d_49">
    <path d="M 559.44 448.459322 
L 559.44 440.663025 
" clip-path="url(#p833f5824b0)" style="fill: none; stroke: #424242; stroke-width: 2.7; stroke-linecap: square"/>
   </g>
   <g id="line2d_50">
    <path d="M 782.64 459.443721 
L 782.64 453.761822 
" clip-path="url(#p833f5824b0)" style="fill: none; stroke: #424242; stroke-width: 2.7; stroke-linecap: square"/>
   </g>
   <g id="line2d_51">
    <path d="M 1005.84 475.505502 
L 1005.84 470.61245 
" clip-path="url(#p833f5824b0)" style="fill: none; stroke: #424242; stroke-width: 2.7; stroke-linecap: square"/>
   </g>
   <g id="line2d_52">
    <path d="M 1229.04 473.038713 
L 1229.04 465.252336 
" clip-path="url(#p833f5824b0)" style="fill: none; stroke: #424242; stroke-width: 2.7; stroke-linecap: square"/>
   </g>
   <g id="line2d_53">
    <path d="M 354.096 468.03549 
L 354.096 465.612713 
" clip-path="url(#p833f5824b0)" style="fill: none; stroke: #424242; stroke-width: 2.7; stroke-linecap: square"/>
   </g>
   <g id="line2d_54">
    <path d="M 577.296 451.599343 
L 577.296 443.889681 
" clip-path="url(#p833f5824b0)" style="fill: none; stroke: #424242; stroke-width: 2.7; stroke-linecap: square"/>
   </g>
   <g id="line2d_55">
    <path d="M 800.496 461.635308 
L 800.496 456.138633 
" clip-path="url(#p833f5824b0)" style="fill: none; stroke: #424242; stroke-width: 2.7; stroke-linecap: square"/>
   </g>
   <g id="line2d_56">
    <path d="M 1023.696 457.303774 
L 1023.696 452.32292 
" clip-path="url(#p833f5824b0)" style="fill: none; stroke: #424242; stroke-width: 2.7; stroke-linecap: square"/>
   </g>
   <g id="line2d_57">
    <path d="M 1246.896 472.544224 
L 1246.896 464.373397 
" clip-path="url(#p833f5824b0)" style="fill: none; stroke: #424242; stroke-width: 2.7; stroke-linecap: square"/>
   </g>
   <g id="line2d_58">
    <path d="M 371.952 193.690345 
L 371.952 177.710075 
" clip-path="url(#p833f5824b0)" style="fill: none; stroke: #424242; stroke-width: 2.7; stroke-linecap: square"/>
   </g>
   <g id="line2d_59">
    <path d="M 595.152 425.408399 
L 595.152 413.13719 
" clip-path="url(#p833f5824b0)" style="fill: none; stroke: #424242; stroke-width: 2.7; stroke-linecap: square"/>
   </g>
   <g id="line2d_60">
    <path d="M 818.352 474.983351 
L 818.352 462.553022 
" clip-path="url(#p833f5824b0)" style="fill: none; stroke: #424242; stroke-width: 2.7; stroke-linecap: square"/>
   </g>
   <g id="line2d_61">
    <path d="M 1041.552 467.384519 
L 1041.552 445.090624 
" clip-path="url(#p833f5824b0)" style="fill: none; stroke: #424242; stroke-width: 2.7; stroke-linecap: square"/>
   </g>
   <g id="line2d_62">
    <path d="M 1264.752 427.662084 
L 1264.752 410.662788 
" clip-path="url(#p833f5824b0)" style="fill: none; stroke: #424242; stroke-width: 2.7; stroke-linecap: square"/>
   </g>
   <g id="patch_53">
    <path d="M 180 512.64 
L 180 69.12 
" style="fill: none; stroke: #000000; stroke-width: 0.8; stroke-linejoin: miter; stroke-linecap: square"/>
   </g>
   <g id="patch_54">
    <path d="M 1296 512.64 
L 1296 69.12 
" style="fill: none; stroke: #000000; stroke-width: 0.8; stroke-linejoin: miter; stroke-linecap: square"/>
   </g>
   <g id="patch_55">
    <path d="M 180 512.64 
L 1296 512.64 
" style="fill: none; stroke: #000000; stroke-width: 0.8; stroke-linejoin: miter; stroke-linecap: square"/>
   </g>
   <g id="patch_56">
    <path d="M 180 69.12 
L 1296 69.12 
" style="fill: none; stroke: #000000; stroke-width: 0.8; stroke-linejoin: miter; stroke-linecap: square"/>
   </g>
   <g id="text_15">
    <!-- Correlation for floc-bodies ROIs -->
    <g transform="translate(644.47125 63.12)scale(0.12 -0.12)">
     <defs>
      <path id="DejaVuSans-2d" d="M 313 2009 
L 1997 2009 
L 1997 1497 
L 313 1497 
L 313 2009 
z
" transform="scale(0.015625)"/>
      <path id="DejaVuSans-62" d="M 3116 1747 
Q 3116 2381 2855 2742 
Q 2594 3103 2138 3103 
Q 1681 3103 1420 2742 
Q 1159 2381 1159 1747 
Q 1159 1113 1420 752 
Q 1681 391 2138 391 
Q 2594 391 2855 752 
Q 3116 1113 3116 1747 
z
M 1159 2969 
Q 1341 3281 1617 3432 
Q 1894 3584 2278 3584 
Q 2916 3584 3314 3078 
Q 3713 2572 3713 1747 
Q 3713 922 3314 415 
Q 2916 -91 2278 -91 
Q 1894 -91 1617 61 
Q 1341 213 1159 525 
L 1159 0 
L 581 0 
L 581 4863 
L 1159 4863 
L 1159 2969 
z
" transform="scale(0.015625)"/>
     </defs>
     <use xlink:href="#DejaVuSans-43"/>
     <use xlink:href="#DejaVuSans-6f" x="69.824219"/>
     <use xlink:href="#DejaVuSans-72" x="131.005859"/>
     <use xlink:href="#DejaVuSans-72" x="170.369141"/>
     <use xlink:href="#DejaVuSans-65" x="209.232422"/>
     <use xlink:href="#DejaVuSans-6c" x="270.755859"/>
     <use xlink:href="#DejaVuSans-61" x="298.539062"/>
     <use xlink:href="#DejaVuSans-74" x="359.818359"/>
     <use xlink:href="#DejaVuSans-69" x="399.027344"/>
     <use xlink:href="#DejaVuSans-6f" x="426.810547"/>
     <use xlink:href="#DejaVuSans-6e" x="487.992188"/>
     <use xlink:href="#DejaVuSans-20" x="551.371094"/>
     <use xlink:href="#DejaVuSans-66" x="583.158203"/>
     <use xlink:href="#DejaVuSans-6f" x="618.363281"/>
     <use xlink:href="#DejaVuSans-72" x="679.544922"/>
     <use xlink:href="#DejaVuSans-20" x="720.658203"/>
     <use xlink:href="#DejaVuSans-66" x="752.445312"/>
     <use xlink:href="#DejaVuSans-6c" x="787.650391"/>
     <use xlink:href="#DejaVuSans-6f" x="815.433594"/>
     <use xlink:href="#DejaVuSans-63" x="876.615234"/>
     <use xlink:href="#DejaVuSans-2d" x="931.595703"/>
     <use xlink:href="#DejaVuSans-62" x="967.679688"/>
     <use xlink:href="#DejaVuSans-6f" x="1031.15625"/>
     <use xlink:href="#DejaVuSans-64" x="1092.337891"/>
     <use xlink:href="#DejaVuSans-69" x="1155.814453"/>
     <use xlink:href="#DejaVuSans-65" x="1183.597656"/>
     <use xlink:href="#DejaVuSans-73" x="1245.121094"/>
     <use xlink:href="#DejaVuSans-20" x="1297.220703"/>
     <use xlink:href="#DejaVuSans-52" x="1329.007812"/>
     <use xlink:href="#DejaVuSans-4f" x="1398.490234"/>
     <use xlink:href="#DejaVuSans-49" x="1477.201172"/>
     <use xlink:href="#DejaVuSans-73" x="1506.693359"/>
    </g>
   </g>
   <g id="legend_1">
    <g id="patch_57">
     <path d="M 1179.967187 238.579375 
L 1289 238.579375 
Q 1291 238.579375 1291 236.579375 
L 1291 76.12 
Q 1291 74.12 1289 74.12 
L 1179.967187 74.12 
Q 1177.967187 74.12 1177.967187 76.12 
L 1177.967187 236.579375 
Q 1177.967187 238.579375 1179.967187 238.579375 
z
" style="fill: #ffffff; opacity: 0.8; stroke: #cccccc; stroke-linejoin: miter"/>
    </g>
    <g id="text_16">
     <!-- type -->
     <g transform="translate(1223.313281 85.718438)scale(0.1 -0.1)">
      <defs>
       <path id="DejaVuSans-79" d="M 2059 -325 
Q 1816 -950 1584 -1140 
Q 1353 -1331 966 -1331 
L 506 -1331 
L 506 -850 
L 844 -850 
Q 1081 -850 1212 -737 
Q 1344 -625 1503 -206 
L 1606 56 
L 191 3500 
L 800 3500 
L 1894 763 
L 2988 3500 
L 3597 3500 
L 2059 -325 
z
" transform="scale(0.015625)"/>
       <path id="DejaVuSans-70" d="M 1159 525 
L 1159 -1331 
L 581 -1331 
L 581 3500 
L 1159 3500 
L 1159 2969 
Q 1341 3281 1617 3432 
Q 1894 3584 2278 3584 
Q 2916 3584 3314 3078 
Q 3713 2572 3713 1747 
Q 3713 922 3314 415 
Q 2916 -91 2278 -91 
Q 1894 -91 1617 61 
Q 1341 213 1159 525 
z
M 3116 1747 
Q 3116 2381 2855 2742 
Q 2594 3103 2138 3103 
Q 1681 3103 1420 2742 
Q 1159 2381 1159 1747 
Q 1159 1113 1420 752 
Q 1681 391 2138 391 
Q 2594 391 2855 752 
Q 3116 1113 3116 1747 
z
" transform="scale(0.015625)"/>
      </defs>
      <use xlink:href="#DejaVuSans-74"/>
      <use xlink:href="#DejaVuSans-79" x="39.208984"/>
      <use xlink:href="#DejaVuSans-70" x="98.388672"/>
      <use xlink:href="#DejaVuSans-65" x="161.865234"/>
     </g>
    </g>
    <g id="patch_58">
     <path d="M 1181.967187 100.396563 
L 1201.967187 100.396563 
L 1201.967187 93.396563 
L 1181.967187 93.396563 
z
" style="fill: #3274a1"/>
    </g>
    <g id="text_17">
     <!-- Luminance -->
     <g transform="translate(1209.967187 100.396563)scale(0.1 -0.1)">
      <defs>
       <path id="DejaVuSans-4c" d="M 628 4666 
L 1259 4666 
L 1259 531 
L 3531 531 
L 3531 0 
L 628 0 
L 628 4666 
z
" transform="scale(0.015625)"/>
       <path id="DejaVuSans-75" d="M 544 1381 
L 544 3500 
L 1119 3500 
L 1119 1403 
Q 1119 906 1312 657 
Q 1506 409 1894 409 
Q 2359 409 2629 706 
Q 2900 1003 2900 1516 
L 2900 3500 
L 3475 3500 
L 3475 0 
L 2900 0 
L 2900 538 
Q 2691 219 2414 64 
Q 2138 -91 1772 -91 
Q 1169 -91 856 284 
Q 544 659 544 1381 
z
M 1991 3584 
L 1991 3584 
z
" transform="scale(0.015625)"/>
      </defs>
      <use xlink:href="#DejaVuSans-4c"/>
      <use xlink:href="#DejaVuSans-75" x="53.962891"/>
      <use xlink:href="#DejaVuSans-6d" x="117.341797"/>
      <use xlink:href="#DejaVuSans-69" x="214.753906"/>
      <use xlink:href="#DejaVuSans-6e" x="242.537109"/>
      <use xlink:href="#DejaVuSans-61" x="305.916016"/>
      <use xlink:href="#DejaVuSans-6e" x="367.195312"/>
      <use xlink:href="#DejaVuSans-63" x="430.574219"/>
      <use xlink:href="#DejaVuSans-65" x="485.554688"/>
     </g>
    </g>
    <g id="patch_59">
     <path d="M 1181.967187 115.074688 
L 1201.967187 115.074688 
L 1201.967187 108.074688 
L 1181.967187 108.074688 
z
" style="fill: #b5c8e1"/>
    </g>
    <g id="text_18">
     <!-- Saturation -->
     <g transform="translate(1209.967187 115.074688)scale(0.1 -0.1)">
      <defs>
       <path id="DejaVuSans-53" d="M 3425 4513 
L 3425 3897 
Q 3066 4069 2747 4153 
Q 2428 4238 2131 4238 
Q 1616 4238 1336 4038 
Q 1056 3838 1056 3469 
Q 1056 3159 1242 3001 
Q 1428 2844 1947 2747 
L 2328 2669 
Q 3034 2534 3370 2195 
Q 3706 1856 3706 1288 
Q 3706 609 3251 259 
Q 2797 -91 1919 -91 
Q 1588 -91 1214 -16 
Q 841 59 441 206 
L 441 856 
Q 825 641 1194 531 
Q 1563 422 1919 422 
Q 2459 422 2753 634 
Q 3047 847 3047 1241 
Q 3047 1584 2836 1778 
Q 2625 1972 2144 2069 
L 1759 2144 
Q 1053 2284 737 2584 
Q 422 2884 422 3419 
Q 422 4038 858 4394 
Q 1294 4750 2059 4750 
Q 2388 4750 2728 4690 
Q 3069 4631 3425 4513 
z
" transform="scale(0.015625)"/>
      </defs>
      <use xlink:href="#DejaVuSans-53"/>
      <use xlink:href="#DejaVuSans-61" x="63.476562"/>
      <use xlink:href="#DejaVuSans-74" x="124.755859"/>
      <use xlink:href="#DejaVuSans-75" x="163.964844"/>
      <use xlink:href="#DejaVuSans-72" x="227.34375"/>
      <use xlink:href="#DejaVuSans-61" x="268.457031"/>
      <use xlink:href="#DejaVuSans-74" x="329.736328"/>
      <use xlink:href="#DejaVuSans-69" x="368.945312"/>
      <use xlink:href="#DejaVuSans-6f" x="396.728516"/>
      <use xlink:href="#DejaVuSans-6e" x="457.910156"/>
     </g>
    </g>
    <g id="patch_60">
     <path d="M 1181.967187 129.752813 
L 1201.967187 129.752813 
L 1201.967187 122.752813 
L 1181.967187 122.752813 
z
" style="fill: #e1812c"/>
    </g>
    <g id="text_19">
     <!-- Edges -->
     <g transform="translate(1209.967187 129.752813)scale(0.1 -0.1)">
      <defs>
       <path id="DejaVuSans-45" d="M 628 4666 
L 3578 4666 
L 3578 4134 
L 1259 4134 
L 1259 2753 
L 3481 2753 
L 3481 2222 
L 1259 2222 
L 1259 531 
L 3634 531 
L 3634 0 
L 628 0 
L 628 4666 
z
" transform="scale(0.015625)"/>
       <path id="DejaVuSans-67" d="M 2906 1791 
Q 2906 2416 2648 2759 
Q 2391 3103 1925 3103 
Q 1463 3103 1205 2759 
Q 947 2416 947 1791 
Q 947 1169 1205 825 
Q 1463 481 1925 481 
Q 2391 481 2648 825 
Q 2906 1169 2906 1791 
z
M 3481 434 
Q 3481 -459 3084 -895 
Q 2688 -1331 1869 -1331 
Q 1566 -1331 1297 -1286 
Q 1028 -1241 775 -1147 
L 775 -588 
Q 1028 -725 1275 -790 
Q 1522 -856 1778 -856 
Q 2344 -856 2625 -561 
Q 2906 -266 2906 331 
L 2906 616 
Q 2728 306 2450 153 
Q 2172 0 1784 0 
Q 1141 0 747 490 
Q 353 981 353 1791 
Q 353 2603 747 3093 
Q 1141 3584 1784 3584 
Q 2172 3584 2450 3431 
Q 2728 3278 2906 2969 
L 2906 3500 
L 3481 3500 
L 3481 434 
z
" transform="scale(0.015625)"/>
      </defs>
      <use xlink:href="#DejaVuSans-45"/>
      <use xlink:href="#DejaVuSans-64" x="63.183594"/>
      <use xlink:href="#DejaVuSans-67" x="126.660156"/>
      <use xlink:href="#DejaVuSans-65" x="190.136719"/>
      <use xlink:href="#DejaVuSans-73" x="251.660156"/>
     </g>
    </g>
    <g id="patch_61">
     <path d="M 1181.967187 144.430938 
L 1201.967187 144.430938 
L 1201.967187 137.430938 
L 1181.967187 137.430938 
z
" style="fill: #eebb89"/>
    </g>
    <g id="text_20">
     <!-- Itti &amp; Koch -->
     <g transform="translate(1209.967187 144.430938)scale(0.1 -0.1)">
      <defs>
       <path id="DejaVuSans-26" d="M 1556 2509 
Q 1272 2256 1139 2004 
Q 1006 1753 1006 1478 
Q 1006 1022 1337 719 
Q 1669 416 2169 416 
Q 2466 416 2725 514 
Q 2984 613 3213 813 
L 1556 2509 
z
M 1997 2859 
L 3584 1234 
Q 3769 1513 3872 1830 
Q 3975 2147 3994 2503 
L 4575 2503 
Q 4538 2091 4375 1687 
Q 4213 1284 3922 891 
L 4794 0 
L 4006 0 
L 3559 459 
Q 3234 181 2878 45 
Q 2522 -91 2113 -91 
Q 1359 -91 881 339 
Q 403 769 403 1441 
Q 403 1841 612 2192 
Q 822 2544 1241 2853 
Q 1091 3050 1012 3245 
Q 934 3441 934 3628 
Q 934 4134 1281 4442 
Q 1628 4750 2203 4750 
Q 2463 4750 2720 4694 
Q 2978 4638 3244 4525 
L 3244 3956 
Q 2972 4103 2725 4179 
Q 2478 4256 2266 4256 
Q 1938 4256 1733 4082 
Q 1528 3909 1528 3634 
Q 1528 3475 1620 3314 
Q 1713 3153 1997 2859 
z
" transform="scale(0.015625)"/>
       <path id="DejaVuSans-4b" d="M 628 4666 
L 1259 4666 
L 1259 2694 
L 3353 4666 
L 4166 4666 
L 1850 2491 
L 4331 0 
L 3500 0 
L 1259 2247 
L 1259 0 
L 628 0 
L 628 4666 
z
" transform="scale(0.015625)"/>
       <path id="DejaVuSans-68" d="M 3513 2113 
L 3513 0 
L 2938 0 
L 2938 2094 
Q 2938 2591 2744 2837 
Q 2550 3084 2163 3084 
Q 1697 3084 1428 2787 
Q 1159 2491 1159 1978 
L 1159 0 
L 581 0 
L 581 4863 
L 1159 4863 
L 1159 2956 
Q 1366 3272 1645 3428 
Q 1925 3584 2291 3584 
Q 2894 3584 3203 3211 
Q 3513 2838 3513 2113 
z
" transform="scale(0.015625)"/>
      </defs>
      <use xlink:href="#DejaVuSans-49"/>
      <use xlink:href="#DejaVuSans-74" x="29.492188"/>
      <use xlink:href="#DejaVuSans-74" x="68.701172"/>
      <use xlink:href="#DejaVuSans-69" x="107.910156"/>
      <use xlink:href="#DejaVuSans-20" x="135.693359"/>
      <use xlink:href="#DejaVuSans-26" x="167.480469"/>
      <use xlink:href="#DejaVuSans-20" x="245.458984"/>
      <use xlink:href="#DejaVuSans-4b" x="277.246094"/>
      <use xlink:href="#DejaVuSans-6f" x="337.822266"/>
      <use xlink:href="#DejaVuSans-63" x="399.003906"/>
      <use xlink:href="#DejaVuSans-68" x="453.984375"/>
     </g>
    </g>
    <g id="patch_62">
     <path d="M 1181.967187 159.109063 
L 1201.967187 159.109063 
L 1201.967187 152.109063 
L 1181.967187 152.109063 
z
" style="fill: #3a923a"/>
    </g>
    <g id="text_21">
     <!-- GBVS -->
     <g transform="translate(1209.967187 159.109063)scale(0.1 -0.1)">
      <defs>
       <path id="DejaVuSans-47" d="M 3809 666 
L 3809 1919 
L 2778 1919 
L 2778 2438 
L 4434 2438 
L 4434 434 
Q 4069 175 3628 42 
Q 3188 -91 2688 -91 
Q 1594 -91 976 548 
Q 359 1188 359 2328 
Q 359 3472 976 4111 
Q 1594 4750 2688 4750 
Q 3144 4750 3555 4637 
Q 3966 4525 4313 4306 
L 4313 3634 
Q 3963 3931 3569 4081 
Q 3175 4231 2741 4231 
Q 1884 4231 1454 3753 
Q 1025 3275 1025 2328 
Q 1025 1384 1454 906 
Q 1884 428 2741 428 
Q 3075 428 3337 486 
Q 3600 544 3809 666 
z
" transform="scale(0.015625)"/>
       <path id="DejaVuSans-42" d="M 1259 2228 
L 1259 519 
L 2272 519 
Q 2781 519 3026 730 
Q 3272 941 3272 1375 
Q 3272 1813 3026 2020 
Q 2781 2228 2272 2228 
L 1259 2228 
z
M 1259 4147 
L 1259 2741 
L 2194 2741 
Q 2656 2741 2882 2914 
Q 3109 3088 3109 3444 
Q 3109 3797 2882 3972 
Q 2656 4147 2194 4147 
L 1259 4147 
z
M 628 4666 
L 2241 4666 
Q 2963 4666 3353 4366 
Q 3744 4066 3744 3513 
Q 3744 3084 3544 2831 
Q 3344 2578 2956 2516 
Q 3422 2416 3680 2098 
Q 3938 1781 3938 1306 
Q 3938 681 3513 340 
Q 3088 0 2303 0 
L 628 0 
L 628 4666 
z
" transform="scale(0.015625)"/>
       <path id="DejaVuSans-56" d="M 1831 0 
L 50 4666 
L 709 4666 
L 2188 738 
L 3669 4666 
L 4325 4666 
L 2547 0 
L 1831 0 
z
" transform="scale(0.015625)"/>
      </defs>
      <use xlink:href="#DejaVuSans-47"/>
      <use xlink:href="#DejaVuSans-42" x="77.490234"/>
      <use xlink:href="#DejaVuSans-56" x="142.96875"/>
      <use xlink:href="#DejaVuSans-53" x="211.376953"/>
     </g>
    </g>
    <g id="patch_63">
     <path d="M 1181.967187 173.787188 
L 1201.967187 173.787188 
L 1201.967187 166.787188 
L 1181.967187 166.787188 
z
" style="fill: #9fd495"/>
    </g>
    <g id="text_22">
     <!-- ICF -->
     <g transform="translate(1209.967187 173.787188)scale(0.1 -0.1)">
      <defs>
       <path id="DejaVuSans-46" d="M 628 4666 
L 3309 4666 
L 3309 4134 
L 1259 4134 
L 1259 2759 
L 3109 2759 
L 3109 2228 
L 1259 2228 
L 1259 0 
L 628 0 
L 628 4666 
z
" transform="scale(0.015625)"/>
      </defs>
      <use xlink:href="#DejaVuSans-49"/>
      <use xlink:href="#DejaVuSans-43" x="29.492188"/>
      <use xlink:href="#DejaVuSans-46" x="99.316406"/>
     </g>
    </g>
    <g id="patch_64">
     <path d="M 1181.967187 188.465313 
L 1201.967187 188.465313 
L 1201.967187 181.465313 
L 1181.967187 181.465313 
z
" style="fill: #c03d3e"/>
    </g>
    <g id="text_23">
     <!-- DeepGaze I -->
     <g transform="translate(1209.967187 188.465313)scale(0.1 -0.1)">
      <defs>
       <path id="DejaVuSans-44" d="M 1259 4147 
L 1259 519 
L 2022 519 
Q 2988 519 3436 956 
Q 3884 1394 3884 2338 
Q 3884 3275 3436 3711 
Q 2988 4147 2022 4147 
L 1259 4147 
z
M 628 4666 
L 1925 4666 
Q 3281 4666 3915 4102 
Q 4550 3538 4550 2338 
Q 4550 1131 3912 565 
Q 3275 0 1925 0 
L 628 0 
L 628 4666 
z
" transform="scale(0.015625)"/>
       <path id="DejaVuSans-7a" d="M 353 3500 
L 3084 3500 
L 3084 2975 
L 922 459 
L 3084 459 
L 3084 0 
L 275 0 
L 275 525 
L 2438 3041 
L 353 3041 
L 353 3500 
z
" transform="scale(0.015625)"/>
      </defs>
      <use xlink:href="#DejaVuSans-44"/>
      <use xlink:href="#DejaVuSans-65" x="77.001953"/>
      <use xlink:href="#DejaVuSans-65" x="138.525391"/>
      <use xlink:href="#DejaVuSans-70" x="200.048828"/>
      <use xlink:href="#DejaVuSans-47" x="263.525391"/>
      <use xlink:href="#DejaVuSans-61" x="341.015625"/>
      <use xlink:href="#DejaVuSans-7a" x="402.294922"/>
      <use xlink:href="#DejaVuSans-65" x="454.785156"/>
      <use xlink:href="#DejaVuSans-20" x="516.308594"/>
      <use xlink:href="#DejaVuSans-49" x="548.095703"/>
     </g>
    </g>
    <g id="patch_65">
     <path d="M 1181.967187 203.143438 
L 1201.967187 203.143438 
L 1201.967187 196.143438 
L 1181.967187 196.143438 
z
" style="fill: #f2a5a3"/>
    </g>
    <g id="text_24">
     <!-- DeepGaze II -->
     <g transform="translate(1209.967187 203.143438)scale(0.1 -0.1)">
      <use xlink:href="#DejaVuSans-44"/>
      <use xlink:href="#DejaVuSans-65" x="77.001953"/>
      <use xlink:href="#DejaVuSans-65" x="138.525391"/>
      <use xlink:href="#DejaVuSans-70" x="200.048828"/>
      <use xlink:href="#DejaVuSans-47" x="263.525391"/>
      <use xlink:href="#DejaVuSans-61" x="341.015625"/>
      <use xlink:href="#DejaVuSans-7a" x="402.294922"/>
      <use xlink:href="#DejaVuSans-65" x="454.785156"/>
      <use xlink:href="#DejaVuSans-20" x="516.308594"/>
      <use xlink:href="#DejaVuSans-49" x="548.095703"/>
      <use xlink:href="#DejaVuSans-49" x="577.587891"/>
     </g>
    </g>
    <g id="patch_66">
     <path d="M 1181.967187 217.821563 
L 1201.967187 217.821563 
L 1201.967187 210.821563 
L 1181.967187 210.821563 
z
" style="fill: #9372b2"/>
    </g>
    <g id="text_25">
     <!-- DeepGaze IIE -->
     <g transform="translate(1209.967187 217.821563)scale(0.1 -0.1)">
      <use xlink:href="#DejaVuSans-44"/>
      <use xlink:href="#DejaVuSans-65" x="77.001953"/>
      <use xlink:href="#DejaVuSans-65" x="138.525391"/>
      <use xlink:href="#DejaVuSans-70" x="200.048828"/>
      <use xlink:href="#DejaVuSans-47" x="263.525391"/>
      <use xlink:href="#DejaVuSans-61" x="341.015625"/>
      <use xlink:href="#DejaVuSans-7a" x="402.294922"/>
      <use xlink:href="#DejaVuSans-65" x="454.785156"/>
      <use xlink:href="#DejaVuSans-20" x="516.308594"/>
      <use xlink:href="#DejaVuSans-49" x="548.095703"/>
      <use xlink:href="#DejaVuSans-49" x="577.587891"/>
      <use xlink:href="#DejaVuSans-45" x="607.080078"/>
     </g>
    </g>
    <g id="patch_67">
     <path d="M 1181.967187 232.499688 
L 1201.967187 232.499688 
L 1201.967187 225.499688 
L 1181.967187 225.499688 
z
" style="fill: #c4b5d0"/>
    </g>
    <g id="text_26">
     <!-- ResNet Stage 4 -->
     <g transform="translate(1209.967187 232.499688)scale(0.1 -0.1)">
      <defs>
       <path id="DejaVuSans-4e" d="M 628 4666 
L 1478 4666 
L 3547 763 
L 3547 4666 
L 4159 4666 
L 4159 0 
L 3309 0 
L 1241 3903 
L 1241 0 
L 628 0 
L 628 4666 
z
" transform="scale(0.015625)"/>
      </defs>
      <use xlink:href="#DejaVuSans-52"/>
      <use xlink:href="#DejaVuSans-65" x="64.982422"/>
      <use xlink:href="#DejaVuSans-73" x="126.505859"/>
      <use xlink:href="#DejaVuSans-4e" x="178.605469"/>
      <use xlink:href="#DejaVuSans-65" x="253.410156"/>
      <use xlink:href="#DejaVuSans-74" x="314.933594"/>
      <use xlink:href="#DejaVuSans-20" x="354.142578"/>
      <use xlink:href="#DejaVuSans-53" x="385.929688"/>
      <use xlink:href="#DejaVuSans-74" x="449.40625"/>
      <use xlink:href="#DejaVuSans-61" x="488.615234"/>
      <use xlink:href="#DejaVuSans-67" x="549.894531"/>
      <use xlink:href="#DejaVuSans-65" x="613.371094"/>
      <use xlink:href="#DejaVuSans-20" x="674.894531"/>
      <use xlink:href="#DejaVuSans-34" x="706.681641"/>
     </g>
    </g>
   </g>
  </g>
 </g>
 <defs>
  <clipPath id="p833f5824b0">
   <rect x="180" y="69.12" width="1116" height="443.52"/>
  </clipPath>
 </defs>
</svg>
