<?xml version="1.0" encoding="utf-8" standalone="no"?>
<!DOCTYPE svg PUBLIC "-//W3C//DTD SVG 1.1//EN"
  "http://www.w3.org/Graphics/SVG/1.1/DTD/svg11.dtd">
<svg xmlns:xlink="http://www.w3.org/1999/xlink" width="1440pt" height="576pt" viewBox="0 0 1440 576" xmlns="http://www.w3.org/2000/svg" version="1.1">
 <metadata>
  <rdf:RDF xmlns:dc="http://purl.org/dc/elements/1.1/" xmlns:cc="http://creativecommons.org/ns#" xmlns:rdf="http://www.w3.org/1999/02/22-rdf-syntax-ns#">
   <cc:Work>
    <dc:type rdf:resource="http://purl.org/dc/dcmitype/StillImage"/>
    <dc:date>2023-09-24T19:40:25.042149</dc:date>
    <dc:format>image/svg+xml</dc:format>
    <dc:creator>
     <cc:Agent>
      <dc:title>Matplotlib v3.5.2, https://matplotlib.org/</dc:title>
     </cc:Agent>
    </dc:creator>
   </cc:Work>
  </rdf:RDF>
 </metadata>
 <defs>
  <style type="text/css">*{stroke-linejoin: round; stroke-linecap: butt}</style>
 </defs>
 <g id="figure_1">
  <g id="patch_1">
   <path d="M 0 576 
L 1440 576 
L 1440 0 
L 0 0 
z
" style="fill: #ffffff"/>
  </g>
  <g id="axes_1">
   <g id="patch_2">
    <path d="M 180 512.64 
L 1296 512.64 
L 1296 69.12 
L 180 69.12 
z
" style="fill: #ffffff"/>
   </g>
   <g id="matplotlib.axis_1">
    <g id="xtick_1">
     <g id="text_1">
      <!-- v3a -->
      <g style="fill: #262626" transform="translate(226.595313 527.238438)scale(0.1 -0.1)">
       <defs>
        <path id="DejaVuSans-76" d="M 191 3500 
L 800 3500 
L 1894 563 
L 2988 3500 
L 3597 3500 
L 2284 0 
L 1503 0 
L 191 3500 
z
" transform="scale(0.015625)"/>
        <path id="DejaVuSans-33" d="M 2597 2516 
Q 3050 2419 3304 2112 
Q 3559 1806 3559 1356 
Q 3559 666 3084 287 
Q 2609 -91 1734 -91 
Q 1441 -91 1130 -33 
Q 819 25 488 141 
L 488 750 
Q 750 597 1062 519 
Q 1375 441 1716 441 
Q 2309 441 2620 675 
Q 2931 909 2931 1356 
Q 2931 1769 2642 2001 
Q 2353 2234 1838 2234 
L 1294 2234 
L 1294 2753 
L 1863 2753 
Q 2328 2753 2575 2939 
Q 2822 3125 2822 3475 
Q 2822 3834 2567 4026 
Q 2313 4219 1838 4219 
Q 1578 4219 1281 4162 
Q 984 4106 628 3988 
L 628 4550 
Q 988 4650 1302 4700 
Q 1616 4750 1894 4750 
Q 2613 4750 3031 4423 
Q 3450 4097 3450 3541 
Q 3450 3153 3228 2886 
Q 3006 2619 2597 2516 
z
" transform="scale(0.015625)"/>
        <path id="DejaVuSans-61" d="M 2194 1759 
Q 1497 1759 1228 1600 
Q 959 1441 959 1056 
Q 959 750 1161 570 
Q 1363 391 1709 391 
Q 2188 391 2477 730 
Q 2766 1069 2766 1631 
L 2766 1759 
L 2194 1759 
z
M 3341 1997 
L 3341 0 
L 2766 0 
L 2766 531 
Q 2569 213 2275 61 
Q 1981 -91 1556 -91 
Q 1019 -91 701 211 
Q 384 513 384 1019 
Q 384 1609 779 1909 
Q 1175 2209 1959 2209 
L 2766 2209 
L 2766 2266 
Q 2766 2663 2505 2880 
Q 2244 3097 1772 3097 
Q 1472 3097 1187 3025 
Q 903 2953 641 2809 
L 641 3341 
Q 956 3463 1253 3523 
Q 1550 3584 1831 3584 
Q 2591 3584 2966 3190 
Q 3341 2797 3341 1997 
z
" transform="scale(0.015625)"/>
       </defs>
       <use xlink:href="#DejaVuSans-76"/>
       <use xlink:href="#DejaVuSans-33" x="59.179688"/>
       <use xlink:href="#DejaVuSans-61" x="122.802734"/>
      </g>
     </g>
    </g>
    <g id="xtick_2">
     <g id="text_2">
      <!-- v3b -->
      <g style="fill: #262626" transform="translate(338.085156 527.238438)scale(0.1 -0.1)">
       <defs>
        <path id="DejaVuSans-62" d="M 3116 1747 
Q 3116 2381 2855 2742 
Q 2594 3103 2138 3103 
Q 1681 3103 1420 2742 
Q 1159 2381 1159 1747 
Q 1159 1113 1420 752 
Q 1681 391 2138 391 
Q 2594 391 2855 752 
Q 3116 1113 3116 1747 
z
M 1159 2969 
Q 1341 3281 1617 3432 
Q 1894 3584 2278 3584 
Q 2916 3584 3314 3078 
Q 3713 2572 3713 1747 
Q 3713 922 3314 415 
Q 2916 -91 2278 -91 
Q 1894 -91 1617 61 
Q 1341 213 1159 525 
L 1159 0 
L 581 0 
L 581 4863 
L 1159 4863 
L 1159 2969 
z
" transform="scale(0.015625)"/>
       </defs>
       <use xlink:href="#DejaVuSans-76"/>
       <use xlink:href="#DejaVuSans-33" x="59.179688"/>
       <use xlink:href="#DejaVuSans-62" x="122.802734"/>
      </g>
     </g>
    </g>
    <g id="xtick_3">
     <g id="text_3">
      <!-- ips0 -->
      <g style="fill: #262626" transform="translate(448.650781 527.238438)scale(0.1 -0.1)">
       <defs>
        <path id="DejaVuSans-69" d="M 603 3500 
L 1178 3500 
L 1178 0 
L 603 0 
L 603 3500 
z
M 603 4863 
L 1178 4863 
L 1178 4134 
L 603 4134 
L 603 4863 
z
" transform="scale(0.015625)"/>
        <path id="DejaVuSans-70" d="M 1159 525 
L 1159 -1331 
L 581 -1331 
L 581 3500 
L 1159 3500 
L 1159 2969 
Q 1341 3281 1617 3432 
Q 1894 3584 2278 3584 
Q 2916 3584 3314 3078 
Q 3713 2572 3713 1747 
Q 3713 922 3314 415 
Q 2916 -91 2278 -91 
Q 1894 -91 1617 61 
Q 1341 213 1159 525 
z
M 3116 1747 
Q 3116 2381 2855 2742 
Q 2594 3103 2138 3103 
Q 1681 3103 1420 2742 
Q 1159 2381 1159 1747 
Q 1159 1113 1420 752 
Q 1681 391 2138 391 
Q 2594 391 2855 752 
Q 3116 1113 3116 1747 
z
" transform="scale(0.015625)"/>
        <path id="DejaVuSans-73" d="M 2834 3397 
L 2834 2853 
Q 2591 2978 2328 3040 
Q 2066 3103 1784 3103 
Q 1356 3103 1142 2972 
Q 928 2841 928 2578 
Q 928 2378 1081 2264 
Q 1234 2150 1697 2047 
L 1894 2003 
Q 2506 1872 2764 1633 
Q 3022 1394 3022 966 
Q 3022 478 2636 193 
Q 2250 -91 1575 -91 
Q 1294 -91 989 -36 
Q 684 19 347 128 
L 347 722 
Q 666 556 975 473 
Q 1284 391 1588 391 
Q 1994 391 2212 530 
Q 2431 669 2431 922 
Q 2431 1156 2273 1281 
Q 2116 1406 1581 1522 
L 1381 1569 
Q 847 1681 609 1914 
Q 372 2147 372 2553 
Q 372 3047 722 3315 
Q 1072 3584 1716 3584 
Q 2034 3584 2315 3537 
Q 2597 3491 2834 3397 
z
" transform="scale(0.015625)"/>
        <path id="DejaVuSans-30" d="M 2034 4250 
Q 1547 4250 1301 3770 
Q 1056 3291 1056 2328 
Q 1056 1369 1301 889 
Q 1547 409 2034 409 
Q 2525 409 2770 889 
Q 3016 1369 3016 2328 
Q 3016 3291 2770 3770 
Q 2525 4250 2034 4250 
z
M 2034 4750 
Q 2819 4750 3233 4129 
Q 3647 3509 3647 2328 
Q 3647 1150 3233 529 
Q 2819 -91 2034 -91 
Q 1250 -91 836 529 
Q 422 1150 422 2328 
Q 422 3509 836 4129 
Q 1250 4750 2034 4750 
z
" transform="scale(0.015625)"/>
       </defs>
       <use xlink:href="#DejaVuSans-69"/>
       <use xlink:href="#DejaVuSans-70" x="27.783203"/>
       <use xlink:href="#DejaVuSans-73" x="91.259766"/>
       <use xlink:href="#DejaVuSans-30" x="143.359375"/>
      </g>
     </g>
    </g>
    <g id="xtick_4">
     <g id="text_4">
      <!-- ips1 -->
      <g style="fill: #262626" transform="translate(560.250781 527.238438)scale(0.1 -0.1)">
       <defs>
        <path id="DejaVuSans-31" d="M 794 531 
L 1825 531 
L 1825 4091 
L 703 3866 
L 703 4441 
L 1819 4666 
L 2450 4666 
L 2450 531 
L 3481 531 
L 3481 0 
L 794 0 
L 794 531 
z
" transform="scale(0.015625)"/>
       </defs>
       <use xlink:href="#DejaVuSans-69"/>
       <use xlink:href="#DejaVuSans-70" x="27.783203"/>
       <use xlink:href="#DejaVuSans-73" x="91.259766"/>
       <use xlink:href="#DejaVuSans-31" x="143.359375"/>
      </g>
     </g>
    </g>
    <g id="xtick_5">
     <g id="text_5">
      <!-- ips2 -->
      <g style="fill: #262626" transform="translate(671.850781 527.238438)scale(0.1 -0.1)">
       <defs>
        <path id="DejaVuSans-32" d="M 1228 531 
L 3431 531 
L 3431 0 
L 469 0 
L 469 531 
Q 828 903 1448 1529 
Q 2069 2156 2228 2338 
Q 2531 2678 2651 2914 
Q 2772 3150 2772 3378 
Q 2772 3750 2511 3984 
Q 2250 4219 1831 4219 
Q 1534 4219 1204 4116 
Q 875 4013 500 3803 
L 500 4441 
Q 881 4594 1212 4672 
Q 1544 4750 1819 4750 
Q 2544 4750 2975 4387 
Q 3406 4025 3406 3419 
Q 3406 3131 3298 2873 
Q 3191 2616 2906 2266 
Q 2828 2175 2409 1742 
Q 1991 1309 1228 531 
z
" transform="scale(0.015625)"/>
       </defs>
       <use xlink:href="#DejaVuSans-69"/>
       <use xlink:href="#DejaVuSans-70" x="27.783203"/>
       <use xlink:href="#DejaVuSans-73" x="91.259766"/>
       <use xlink:href="#DejaVuSans-32" x="143.359375"/>
      </g>
     </g>
    </g>
    <g id="xtick_6">
     <g id="text_6">
      <!-- ips3 -->
      <g style="fill: #262626" transform="translate(783.450781 527.238438)scale(0.1 -0.1)">
       <use xlink:href="#DejaVuSans-69"/>
       <use xlink:href="#DejaVuSans-70" x="27.783203"/>
       <use xlink:href="#DejaVuSans-73" x="91.259766"/>
       <use xlink:href="#DejaVuSans-33" x="143.359375"/>
      </g>
     </g>
    </g>
    <g id="xtick_7">
     <g id="text_7">
      <!-- ips4 -->
      <g style="fill: #262626" transform="translate(895.050781 527.238438)scale(0.1 -0.1)">
       <defs>
        <path id="DejaVuSans-34" d="M 2419 4116 
L 825 1625 
L 2419 1625 
L 2419 4116 
z
M 2253 4666 
L 3047 4666 
L 3047 1625 
L 3713 1625 
L 3713 1100 
L 3047 1100 
L 3047 0 
L 2419 0 
L 2419 1100 
L 313 1100 
L 313 1709 
L 2253 4666 
z
" transform="scale(0.015625)"/>
       </defs>
       <use xlink:href="#DejaVuSans-69"/>
       <use xlink:href="#DejaVuSans-70" x="27.783203"/>
       <use xlink:href="#DejaVuSans-73" x="91.259766"/>
       <use xlink:href="#DejaVuSans-34" x="143.359375"/>
      </g>
     </g>
    </g>
    <g id="xtick_8">
     <g id="text_8">
      <!-- ips5 -->
      <g style="fill: #262626" transform="translate(1006.650781 527.238438)scale(0.1 -0.1)">
       <defs>
        <path id="DejaVuSans-35" d="M 691 4666 
L 3169 4666 
L 3169 4134 
L 1269 4134 
L 1269 2991 
Q 1406 3038 1543 3061 
Q 1681 3084 1819 3084 
Q 2600 3084 3056 2656 
Q 3513 2228 3513 1497 
Q 3513 744 3044 326 
Q 2575 -91 1722 -91 
Q 1428 -91 1123 -41 
Q 819 9 494 109 
L 494 744 
Q 775 591 1075 516 
Q 1375 441 1709 441 
Q 2250 441 2565 725 
Q 2881 1009 2881 1497 
Q 2881 1984 2565 2268 
Q 2250 2553 1709 2553 
Q 1456 2553 1204 2497 
Q 953 2441 691 2322 
L 691 4666 
z
" transform="scale(0.015625)"/>
       </defs>
       <use xlink:href="#DejaVuSans-69"/>
       <use xlink:href="#DejaVuSans-70" x="27.783203"/>
       <use xlink:href="#DejaVuSans-73" x="91.259766"/>
       <use xlink:href="#DejaVuSans-35" x="143.359375"/>
      </g>
     </g>
    </g>
    <g id="xtick_9">
     <g id="text_9">
      <!-- spl1 -->
      <g style="fill: #262626" transform="translate(1118.250781 527.238438)scale(0.1 -0.1)">
       <defs>
        <path id="DejaVuSans-6c" d="M 603 4863 
L 1178 4863 
L 1178 0 
L 603 0 
L 603 4863 
z
" transform="scale(0.015625)"/>
       </defs>
       <use xlink:href="#DejaVuSans-73"/>
       <use xlink:href="#DejaVuSans-70" x="52.099609"/>
       <use xlink:href="#DejaVuSans-6c" x="115.576172"/>
       <use xlink:href="#DejaVuSans-31" x="143.359375"/>
      </g>
     </g>
    </g>
    <g id="xtick_10">
     <g id="text_10">
      <!-- fef -->
      <g style="fill: #262626" transform="translate(1233.603125 527.238438)scale(0.1 -0.1)">
       <defs>
        <path id="DejaVuSans-66" d="M 2375 4863 
L 2375 4384 
L 1825 4384 
Q 1516 4384 1395 4259 
Q 1275 4134 1275 3809 
L 1275 3500 
L 2222 3500 
L 2222 3053 
L 1275 3053 
L 1275 0 
L 697 0 
L 697 3053 
L 147 3053 
L 147 3500 
L 697 3500 
L 697 3744 
Q 697 4328 969 4595 
Q 1241 4863 1831 4863 
L 2375 4863 
z
" transform="scale(0.015625)"/>
        <path id="DejaVuSans-65" d="M 3597 1894 
L 3597 1613 
L 953 1613 
Q 991 1019 1311 708 
Q 1631 397 2203 397 
Q 2534 397 2845 478 
Q 3156 559 3463 722 
L 3463 178 
Q 3153 47 2828 -22 
Q 2503 -91 2169 -91 
Q 1331 -91 842 396 
Q 353 884 353 1716 
Q 353 2575 817 3079 
Q 1281 3584 2069 3584 
Q 2775 3584 3186 3129 
Q 3597 2675 3597 1894 
z
M 3022 2063 
Q 3016 2534 2758 2815 
Q 2500 3097 2075 3097 
Q 1594 3097 1305 2825 
Q 1016 2553 972 2059 
L 3022 2063 
z
" transform="scale(0.015625)"/>
       </defs>
       <use xlink:href="#DejaVuSans-66"/>
       <use xlink:href="#DejaVuSans-65" x="35.205078"/>
       <use xlink:href="#DejaVuSans-66" x="96.728516"/>
      </g>
     </g>
    </g>
    <g id="text_11">
     <!-- ROI -->
     <g style="fill: #262626" transform="translate(729.114844 540.916563)scale(0.1 -0.1)">
      <defs>
       <path id="DejaVuSans-52" d="M 2841 2188 
Q 3044 2119 3236 1894 
Q 3428 1669 3622 1275 
L 4263 0 
L 3584 0 
L 2988 1197 
Q 2756 1666 2539 1819 
Q 2322 1972 1947 1972 
L 1259 1972 
L 1259 0 
L 628 0 
L 628 4666 
L 2053 4666 
Q 2853 4666 3247 4331 
Q 3641 3997 3641 3322 
Q 3641 2881 3436 2590 
Q 3231 2300 2841 2188 
z
M 1259 4147 
L 1259 2491 
L 2053 2491 
Q 2509 2491 2742 2702 
Q 2975 2913 2975 3322 
Q 2975 3731 2742 3939 
Q 2509 4147 2053 4147 
L 1259 4147 
z
" transform="scale(0.015625)"/>
       <path id="DejaVuSans-4f" d="M 2522 4238 
Q 1834 4238 1429 3725 
Q 1025 3213 1025 2328 
Q 1025 1447 1429 934 
Q 1834 422 2522 422 
Q 3209 422 3611 934 
Q 4013 1447 4013 2328 
Q 4013 3213 3611 3725 
Q 3209 4238 2522 4238 
z
M 2522 4750 
Q 3503 4750 4090 4092 
Q 4678 3434 4678 2328 
Q 4678 1225 4090 567 
Q 3503 -91 2522 -91 
Q 1538 -91 948 565 
Q 359 1222 359 2328 
Q 359 3434 948 4092 
Q 1538 4750 2522 4750 
z
" transform="scale(0.015625)"/>
       <path id="DejaVuSans-49" d="M 628 4666 
L 1259 4666 
L 1259 0 
L 628 0 
L 628 4666 
z
" transform="scale(0.015625)"/>
      </defs>
      <use xlink:href="#DejaVuSans-52"/>
      <use xlink:href="#DejaVuSans-4f" x="69.482422"/>
      <use xlink:href="#DejaVuSans-49" x="148.193359"/>
     </g>
    </g>
   </g>
   <g id="matplotlib.axis_2">
    <g id="ytick_1">
     <g id="line2d_1">
      <path d="M 180 459.426352 
L 1296 459.426352 
" clip-path="url(#pd6c07bdc3f)" style="fill: none; stroke: #cccccc; stroke-width: 0.8; stroke-linecap: round"/>
     </g>
     <g id="text_12">
      <!-- −0.02 -->
      <g style="fill: #262626" transform="translate(142.354688 463.225571)scale(0.1 -0.1)">
       <defs>
        <path id="DejaVuSans-2212" d="M 678 2272 
L 4684 2272 
L 4684 1741 
L 678 1741 
L 678 2272 
z
" transform="scale(0.015625)"/>
        <path id="DejaVuSans-2e" d="M 684 794 
L 1344 794 
L 1344 0 
L 684 0 
L 684 794 
z
" transform="scale(0.015625)"/>
       </defs>
       <use xlink:href="#DejaVuSans-2212"/>
       <use xlink:href="#DejaVuSans-30" x="83.789062"/>
       <use xlink:href="#DejaVuSans-2e" x="147.412109"/>
       <use xlink:href="#DejaVuSans-30" x="179.199219"/>
       <use xlink:href="#DejaVuSans-32" x="242.822266"/>
      </g>
     </g>
    </g>
    <g id="ytick_2">
     <g id="line2d_2">
      <path d="M 180 394.592625 
L 1296 394.592625 
" clip-path="url(#pd6c07bdc3f)" style="fill: none; stroke: #cccccc; stroke-width: 0.8; stroke-linecap: round"/>
     </g>
     <g id="text_13">
      <!-- 0.00 -->
      <g style="fill: #262626" transform="translate(150.734375 398.391843)scale(0.1 -0.1)">
       <use xlink:href="#DejaVuSans-30"/>
       <use xlink:href="#DejaVuSans-2e" x="63.623047"/>
       <use xlink:href="#DejaVuSans-30" x="95.410156"/>
       <use xlink:href="#DejaVuSans-30" x="159.033203"/>
      </g>
     </g>
    </g>
    <g id="ytick_3">
     <g id="line2d_3">
      <path d="M 180 329.758897 
L 1296 329.758897 
" clip-path="url(#pd6c07bdc3f)" style="fill: none; stroke: #cccccc; stroke-width: 0.8; stroke-linecap: round"/>
     </g>
     <g id="text_14">
      <!-- 0.02 -->
      <g style="fill: #262626" transform="translate(150.734375 333.558116)scale(0.1 -0.1)">
       <use xlink:href="#DejaVuSans-30"/>
       <use xlink:href="#DejaVuSans-2e" x="63.623047"/>
       <use xlink:href="#DejaVuSans-30" x="95.410156"/>
       <use xlink:href="#DejaVuSans-32" x="159.033203"/>
      </g>
     </g>
    </g>
    <g id="ytick_4">
     <g id="line2d_4">
      <path d="M 180 264.925169 
L 1296 264.925169 
" clip-path="url(#pd6c07bdc3f)" style="fill: none; stroke: #cccccc; stroke-width: 0.8; stroke-linecap: round"/>
     </g>
     <g id="text_15">
      <!-- 0.04 -->
      <g style="fill: #262626" transform="translate(150.734375 268.724388)scale(0.1 -0.1)">
       <use xlink:href="#DejaVuSans-30"/>
       <use xlink:href="#DejaVuSans-2e" x="63.623047"/>
       <use xlink:href="#DejaVuSans-30" x="95.410156"/>
       <use xlink:href="#DejaVuSans-34" x="159.033203"/>
      </g>
     </g>
    </g>
    <g id="ytick_5">
     <g id="line2d_5">
      <path d="M 180 200.091442 
L 1296 200.091442 
" clip-path="url(#pd6c07bdc3f)" style="fill: none; stroke: #cccccc; stroke-width: 0.8; stroke-linecap: round"/>
     </g>
     <g id="text_16">
      <!-- 0.06 -->
      <g style="fill: #262626" transform="translate(150.734375 203.89066)scale(0.1 -0.1)">
       <defs>
        <path id="DejaVuSans-36" d="M 2113 2584 
Q 1688 2584 1439 2293 
Q 1191 2003 1191 1497 
Q 1191 994 1439 701 
Q 1688 409 2113 409 
Q 2538 409 2786 701 
Q 3034 994 3034 1497 
Q 3034 2003 2786 2293 
Q 2538 2584 2113 2584 
z
M 3366 4563 
L 3366 3988 
Q 3128 4100 2886 4159 
Q 2644 4219 2406 4219 
Q 1781 4219 1451 3797 
Q 1122 3375 1075 2522 
Q 1259 2794 1537 2939 
Q 1816 3084 2150 3084 
Q 2853 3084 3261 2657 
Q 3669 2231 3669 1497 
Q 3669 778 3244 343 
Q 2819 -91 2113 -91 
Q 1303 -91 875 529 
Q 447 1150 447 2328 
Q 447 3434 972 4092 
Q 1497 4750 2381 4750 
Q 2619 4750 2861 4703 
Q 3103 4656 3366 4563 
z
" transform="scale(0.015625)"/>
       </defs>
       <use xlink:href="#DejaVuSans-30"/>
       <use xlink:href="#DejaVuSans-2e" x="63.623047"/>
       <use xlink:href="#DejaVuSans-30" x="95.410156"/>
       <use xlink:href="#DejaVuSans-36" x="159.033203"/>
      </g>
     </g>
    </g>
    <g id="ytick_6">
     <g id="line2d_6">
      <path d="M 180 135.257714 
L 1296 135.257714 
" clip-path="url(#pd6c07bdc3f)" style="fill: none; stroke: #cccccc; stroke-width: 0.8; stroke-linecap: round"/>
     </g>
     <g id="text_17">
      <!-- 0.08 -->
      <g style="fill: #262626" transform="translate(150.734375 139.056933)scale(0.1 -0.1)">
       <defs>
        <path id="DejaVuSans-38" d="M 2034 2216 
Q 1584 2216 1326 1975 
Q 1069 1734 1069 1313 
Q 1069 891 1326 650 
Q 1584 409 2034 409 
Q 2484 409 2743 651 
Q 3003 894 3003 1313 
Q 3003 1734 2745 1975 
Q 2488 2216 2034 2216 
z
M 1403 2484 
Q 997 2584 770 2862 
Q 544 3141 544 3541 
Q 544 4100 942 4425 
Q 1341 4750 2034 4750 
Q 2731 4750 3128 4425 
Q 3525 4100 3525 3541 
Q 3525 3141 3298 2862 
Q 3072 2584 2669 2484 
Q 3125 2378 3379 2068 
Q 3634 1759 3634 1313 
Q 3634 634 3220 271 
Q 2806 -91 2034 -91 
Q 1263 -91 848 271 
Q 434 634 434 1313 
Q 434 1759 690 2068 
Q 947 2378 1403 2484 
z
M 1172 3481 
Q 1172 3119 1398 2916 
Q 1625 2713 2034 2713 
Q 2441 2713 2670 2916 
Q 2900 3119 2900 3481 
Q 2900 3844 2670 4047 
Q 2441 4250 2034 4250 
Q 1625 4250 1398 4047 
Q 1172 3844 1172 3481 
z
" transform="scale(0.015625)"/>
       </defs>
       <use xlink:href="#DejaVuSans-30"/>
       <use xlink:href="#DejaVuSans-2e" x="63.623047"/>
       <use xlink:href="#DejaVuSans-30" x="95.410156"/>
       <use xlink:href="#DejaVuSans-38" x="159.033203"/>
      </g>
     </g>
    </g>
    <g id="ytick_7">
     <g id="line2d_7">
      <path d="M 180 70.423986 
L 1296 70.423986 
" clip-path="url(#pd6c07bdc3f)" style="fill: none; stroke: #cccccc; stroke-width: 0.8; stroke-linecap: round"/>
     </g>
     <g id="text_18">
      <!-- 0.10 -->
      <g style="fill: #262626" transform="translate(150.734375 74.223205)scale(0.1 -0.1)">
       <use xlink:href="#DejaVuSans-30"/>
       <use xlink:href="#DejaVuSans-2e" x="63.623047"/>
       <use xlink:href="#DejaVuSans-31" x="95.410156"/>
       <use xlink:href="#DejaVuSans-30" x="159.033203"/>
      </g>
     </g>
    </g>
    <g id="text_19">
     <!-- Correlation coefficient -->
     <g style="fill: #262626" transform="translate(136.275 346.176094)rotate(-90)scale(0.1 -0.1)">
      <defs>
       <path id="DejaVuSans-43" d="M 4122 4306 
L 4122 3641 
Q 3803 3938 3442 4084 
Q 3081 4231 2675 4231 
Q 1875 4231 1450 3742 
Q 1025 3253 1025 2328 
Q 1025 1406 1450 917 
Q 1875 428 2675 428 
Q 3081 428 3442 575 
Q 3803 722 4122 1019 
L 4122 359 
Q 3791 134 3420 21 
Q 3050 -91 2638 -91 
Q 1578 -91 968 557 
Q 359 1206 359 2328 
Q 359 3453 968 4101 
Q 1578 4750 2638 4750 
Q 3056 4750 3426 4639 
Q 3797 4528 4122 4306 
z
" transform="scale(0.015625)"/>
       <path id="DejaVuSans-6f" d="M 1959 3097 
Q 1497 3097 1228 2736 
Q 959 2375 959 1747 
Q 959 1119 1226 758 
Q 1494 397 1959 397 
Q 2419 397 2687 759 
Q 2956 1122 2956 1747 
Q 2956 2369 2687 2733 
Q 2419 3097 1959 3097 
z
M 1959 3584 
Q 2709 3584 3137 3096 
Q 3566 2609 3566 1747 
Q 3566 888 3137 398 
Q 2709 -91 1959 -91 
Q 1206 -91 779 398 
Q 353 888 353 1747 
Q 353 2609 779 3096 
Q 1206 3584 1959 3584 
z
" transform="scale(0.015625)"/>
       <path id="DejaVuSans-72" d="M 2631 2963 
Q 2534 3019 2420 3045 
Q 2306 3072 2169 3072 
Q 1681 3072 1420 2755 
Q 1159 2438 1159 1844 
L 1159 0 
L 581 0 
L 581 3500 
L 1159 3500 
L 1159 2956 
Q 1341 3275 1631 3429 
Q 1922 3584 2338 3584 
Q 2397 3584 2469 3576 
Q 2541 3569 2628 3553 
L 2631 2963 
z
" transform="scale(0.015625)"/>
       <path id="DejaVuSans-74" d="M 1172 4494 
L 1172 3500 
L 2356 3500 
L 2356 3053 
L 1172 3053 
L 1172 1153 
Q 1172 725 1289 603 
Q 1406 481 1766 481 
L 2356 481 
L 2356 0 
L 1766 0 
Q 1100 0 847 248 
Q 594 497 594 1153 
L 594 3053 
L 172 3053 
L 172 3500 
L 594 3500 
L 594 4494 
L 1172 4494 
z
" transform="scale(0.015625)"/>
       <path id="DejaVuSans-6e" d="M 3513 2113 
L 3513 0 
L 2938 0 
L 2938 2094 
Q 2938 2591 2744 2837 
Q 2550 3084 2163 3084 
Q 1697 3084 1428 2787 
Q 1159 2491 1159 1978 
L 1159 0 
L 581 0 
L 581 3500 
L 1159 3500 
L 1159 2956 
Q 1366 3272 1645 3428 
Q 1925 3584 2291 3584 
Q 2894 3584 3203 3211 
Q 3513 2838 3513 2113 
z
" transform="scale(0.015625)"/>
       <path id="DejaVuSans-20" transform="scale(0.015625)"/>
       <path id="DejaVuSans-63" d="M 3122 3366 
L 3122 2828 
Q 2878 2963 2633 3030 
Q 2388 3097 2138 3097 
Q 1578 3097 1268 2742 
Q 959 2388 959 1747 
Q 959 1106 1268 751 
Q 1578 397 2138 397 
Q 2388 397 2633 464 
Q 2878 531 3122 666 
L 3122 134 
Q 2881 22 2623 -34 
Q 2366 -91 2075 -91 
Q 1284 -91 818 406 
Q 353 903 353 1747 
Q 353 2603 823 3093 
Q 1294 3584 2113 3584 
Q 2378 3584 2631 3529 
Q 2884 3475 3122 3366 
z
" transform="scale(0.015625)"/>
      </defs>
      <use xlink:href="#DejaVuSans-43"/>
      <use xlink:href="#DejaVuSans-6f" x="69.824219"/>
      <use xlink:href="#DejaVuSans-72" x="131.005859"/>
      <use xlink:href="#DejaVuSans-72" x="170.369141"/>
      <use xlink:href="#DejaVuSans-65" x="209.232422"/>
      <use xlink:href="#DejaVuSans-6c" x="270.755859"/>
      <use xlink:href="#DejaVuSans-61" x="298.539062"/>
      <use xlink:href="#DejaVuSans-74" x="359.818359"/>
      <use xlink:href="#DejaVuSans-69" x="399.027344"/>
      <use xlink:href="#DejaVuSans-6f" x="426.810547"/>
      <use xlink:href="#DejaVuSans-6e" x="487.992188"/>
      <use xlink:href="#DejaVuSans-20" x="551.371094"/>
      <use xlink:href="#DejaVuSans-63" x="583.158203"/>
      <use xlink:href="#DejaVuSans-6f" x="638.138672"/>
      <use xlink:href="#DejaVuSans-65" x="699.320312"/>
      <use xlink:href="#DejaVuSans-66" x="760.84375"/>
      <use xlink:href="#DejaVuSans-66" x="796.048828"/>
      <use xlink:href="#DejaVuSans-69" x="831.253906"/>
      <use xlink:href="#DejaVuSans-63" x="859.037109"/>
      <use xlink:href="#DejaVuSans-69" x="914.017578"/>
      <use xlink:href="#DejaVuSans-65" x="941.800781"/>
      <use xlink:href="#DejaVuSans-6e" x="1003.324219"/>
      <use xlink:href="#DejaVuSans-74" x="1066.703125"/>
     </g>
    </g>
   </g>
   <g id="patch_3">
    <path d="M 191.16 394.592625 
L 200.088 394.592625 
L 200.088 478.667324 
L 191.16 478.667324 
z
" clip-path="url(#pd6c07bdc3f)" style="fill: #3274a1; stroke: #ffffff; stroke-linejoin: miter"/>
   </g>
   <g id="patch_4">
    <path d="M 302.76 394.592625 
L 311.688 394.592625 
L 311.688 406.8398 
L 302.76 406.8398 
z
" clip-path="url(#pd6c07bdc3f)" style="fill: #3274a1; stroke: #ffffff; stroke-linejoin: miter"/>
   </g>
   <g id="patch_5">
    <path d="M 414.36 394.592625 
L 423.288 394.592625 
L 423.288 378.347053 
L 414.36 378.347053 
z
" clip-path="url(#pd6c07bdc3f)" style="fill: #3274a1; stroke: #ffffff; stroke-linejoin: miter"/>
   </g>
   <g id="patch_6">
    <path d="M 525.96 394.592625 
L 534.888 394.592625 
L 534.888 329.733115 
L 525.96 329.733115 
z
" clip-path="url(#pd6c07bdc3f)" style="fill: #3274a1; stroke: #ffffff; stroke-linejoin: miter"/>
   </g>
   <g id="patch_7">
    <path d="M 637.56 394.592625 
L 646.488 394.592625 
L 646.488 397.937876 
L 637.56 397.937876 
z
" clip-path="url(#pd6c07bdc3f)" style="fill: #3274a1; stroke: #ffffff; stroke-linejoin: miter"/>
   </g>
   <g id="patch_8">
    <path d="M 749.16 394.592625 
L 758.088 394.592625 
L 758.088 374.418722 
L 749.16 374.418722 
z
" clip-path="url(#pd6c07bdc3f)" style="fill: #3274a1; stroke: #ffffff; stroke-linejoin: miter"/>
   </g>
   <g id="patch_9">
    <path d="M 860.76 394.592625 
L 869.688 394.592625 
L 869.688 387.277622 
L 860.76 387.277622 
z
" clip-path="url(#pd6c07bdc3f)" style="fill: #3274a1; stroke: #ffffff; stroke-linejoin: miter"/>
   </g>
   <g id="patch_10">
    <path d="M 972.36 394.592625 
L 981.288 394.592625 
L 981.288 422.030008 
L 972.36 422.030008 
z
" clip-path="url(#pd6c07bdc3f)" style="fill: #3274a1; stroke: #ffffff; stroke-linejoin: miter"/>
   </g>
   <g id="patch_11">
    <path d="M 1083.96 394.592625 
L 1092.888 394.592625 
L 1092.888 402.349127 
L 1083.96 402.349127 
z
" clip-path="url(#pd6c07bdc3f)" style="fill: #3274a1; stroke: #ffffff; stroke-linejoin: miter"/>
   </g>
   <g id="patch_12">
    <path d="M 1195.56 394.592625 
L 1204.488 394.592625 
L 1204.488 427.850381 
L 1195.56 427.850381 
z
" clip-path="url(#pd6c07bdc3f)" style="fill: #3274a1; stroke: #ffffff; stroke-linejoin: miter"/>
   </g>
   <g id="patch_13">
    <path d="M 200.088 394.592625 
L 209.016 394.592625 
L 209.016 349.568661 
L 200.088 349.568661 
z
" clip-path="url(#pd6c07bdc3f)" style="fill: #b5c8e1; stroke: #ffffff; stroke-linejoin: miter"/>
   </g>
   <g id="patch_14">
    <path d="M 311.688 394.592625 
L 320.616 394.592625 
L 320.616 371.179312 
L 311.688 371.179312 
z
" clip-path="url(#pd6c07bdc3f)" style="fill: #b5c8e1; stroke: #ffffff; stroke-linejoin: miter"/>
   </g>
   <g id="patch_15">
    <path d="M 423.288 394.592625 
L 432.216 394.592625 
L 432.216 310.911309 
L 423.288 310.911309 
z
" clip-path="url(#pd6c07bdc3f)" style="fill: #b5c8e1; stroke: #ffffff; stroke-linejoin: miter"/>
   </g>
   <g id="patch_16">
    <path d="M 534.888 394.592625 
L 543.816 394.592625 
L 543.816 353.673417 
L 534.888 353.673417 
z
" clip-path="url(#pd6c07bdc3f)" style="fill: #b5c8e1; stroke: #ffffff; stroke-linejoin: miter"/>
   </g>
   <g id="patch_17">
    <path d="M 646.488 394.592625 
L 655.416 394.592625 
L 655.416 448.543689 
L 646.488 448.543689 
z
" clip-path="url(#pd6c07bdc3f)" style="fill: #b5c8e1; stroke: #ffffff; stroke-linejoin: miter"/>
   </g>
   <g id="patch_18">
    <path d="M 758.088 394.592625 
L 767.016 394.592625 
L 767.016 405.898506 
L 758.088 405.898506 
z
" clip-path="url(#pd6c07bdc3f)" style="fill: #b5c8e1; stroke: #ffffff; stroke-linejoin: miter"/>
   </g>
   <g id="patch_19">
    <path d="M 869.688 394.592625 
L 878.616 394.592625 
L 878.616 315.003303 
L 869.688 315.003303 
z
" clip-path="url(#pd6c07bdc3f)" style="fill: #b5c8e1; stroke: #ffffff; stroke-linejoin: miter"/>
   </g>
   <g id="patch_20">
    <path d="M 981.288 394.592625 
L 990.216 394.592625 
L 990.216 319.0459 
L 981.288 319.0459 
z
" clip-path="url(#pd6c07bdc3f)" style="fill: #b5c8e1; stroke: #ffffff; stroke-linejoin: miter"/>
   </g>
   <g id="patch_21">
    <path d="M 1092.888 394.592625 
L 1101.816 394.592625 
L 1101.816 445.527875 
L 1092.888 445.527875 
z
" clip-path="url(#pd6c07bdc3f)" style="fill: #b5c8e1; stroke: #ffffff; stroke-linejoin: miter"/>
   </g>
   <g id="patch_22">
    <path d="M 1204.488 394.592625 
L 1213.416 394.592625 
L 1213.416 401.302727 
L 1204.488 401.302727 
z
" clip-path="url(#pd6c07bdc3f)" style="fill: #b5c8e1; stroke: #ffffff; stroke-linejoin: miter"/>
   </g>
   <g id="patch_23">
    <path d="M 209.016 394.592625 
L 217.944 394.592625 
L 217.944 280.455744 
L 209.016 280.455744 
z
" clip-path="url(#pd6c07bdc3f)" style="fill: #e1812c; stroke: #ffffff; stroke-linejoin: miter"/>
   </g>
   <g id="patch_24">
    <path d="M 320.616 394.592625 
L 329.544 394.592625 
L 329.544 233.873607 
L 320.616 233.873607 
z
" clip-path="url(#pd6c07bdc3f)" style="fill: #e1812c; stroke: #ffffff; stroke-linejoin: miter"/>
   </g>
   <g id="patch_25">
    <path d="M 432.216 394.592625 
L 441.144 394.592625 
L 441.144 344.217213 
L 432.216 344.217213 
z
" clip-path="url(#pd6c07bdc3f)" style="fill: #e1812c; stroke: #ffffff; stroke-linejoin: miter"/>
   </g>
   <g id="patch_26">
    <path d="M 543.816 394.592625 
L 552.744 394.592625 
L 552.744 321.827066 
L 543.816 321.827066 
z
" clip-path="url(#pd6c07bdc3f)" style="fill: #e1812c; stroke: #ffffff; stroke-linejoin: miter"/>
   </g>
   <g id="patch_27">
    <path d="M 655.416 394.592625 
L 664.344 394.592625 
L 664.344 354.614555 
L 655.416 354.614555 
z
" clip-path="url(#pd6c07bdc3f)" style="fill: #e1812c; stroke: #ffffff; stroke-linejoin: miter"/>
   </g>
   <g id="patch_28">
    <path d="M 767.016 394.592625 
L 775.944 394.592625 
L 775.944 347.295714 
L 767.016 347.295714 
z
" clip-path="url(#pd6c07bdc3f)" style="fill: #e1812c; stroke: #ffffff; stroke-linejoin: miter"/>
   </g>
   <g id="patch_29">
    <path d="M 878.616 394.592625 
L 887.544 394.592625 
L 887.544 360.060487 
L 878.616 360.060487 
z
" clip-path="url(#pd6c07bdc3f)" style="fill: #e1812c; stroke: #ffffff; stroke-linejoin: miter"/>
   </g>
   <g id="patch_30">
    <path d="M 990.216 394.592625 
L 999.144 394.592625 
L 999.144 321.864056 
L 990.216 321.864056 
z
" clip-path="url(#pd6c07bdc3f)" style="fill: #e1812c; stroke: #ffffff; stroke-linejoin: miter"/>
   </g>
   <g id="patch_31">
    <path d="M 1101.816 394.592625 
L 1110.744 394.592625 
L 1110.744 381.062028 
L 1101.816 381.062028 
z
" clip-path="url(#pd6c07bdc3f)" style="fill: #e1812c; stroke: #ffffff; stroke-linejoin: miter"/>
   </g>
   <g id="patch_32">
    <path d="M 1213.416 394.592625 
L 1222.344 394.592625 
L 1222.344 376.980496 
L 1213.416 376.980496 
z
" clip-path="url(#pd6c07bdc3f)" style="fill: #e1812c; stroke: #ffffff; stroke-linejoin: miter"/>
   </g>
   <g id="patch_33">
    <path d="M 217.944 394.592625 
L 226.872 394.592625 
L 226.872 300.749784 
L 217.944 300.749784 
z
" clip-path="url(#pd6c07bdc3f)" style="fill: #eebb89; stroke: #ffffff; stroke-linejoin: miter"/>
   </g>
   <g id="patch_34">
    <path d="M 329.544 394.592625 
L 338.472 394.592625 
L 338.472 356.638605 
L 329.544 356.638605 
z
" clip-path="url(#pd6c07bdc3f)" style="fill: #eebb89; stroke: #ffffff; stroke-linejoin: miter"/>
   </g>
   <g id="patch_35">
    <path d="M 441.144 394.592625 
L 450.072 394.592625 
L 450.072 395.653988 
L 441.144 395.653988 
z
" clip-path="url(#pd6c07bdc3f)" style="fill: #eebb89; stroke: #ffffff; stroke-linejoin: miter"/>
   </g>
   <g id="patch_36">
    <path d="M 552.744 394.592625 
L 561.672 394.592625 
L 561.672 380.457054 
L 552.744 380.457054 
z
" clip-path="url(#pd6c07bdc3f)" style="fill: #eebb89; stroke: #ffffff; stroke-linejoin: miter"/>
   </g>
   <g id="patch_37">
    <path d="M 664.344 394.592625 
L 673.272 394.592625 
L 673.272 402.439818 
L 664.344 402.439818 
z
" clip-path="url(#pd6c07bdc3f)" style="fill: #eebb89; stroke: #ffffff; stroke-linejoin: miter"/>
   </g>
   <g id="patch_38">
    <path d="M 775.944 394.592625 
L 784.872 394.592625 
L 784.872 425.334089 
L 775.944 425.334089 
z
" clip-path="url(#pd6c07bdc3f)" style="fill: #eebb89; stroke: #ffffff; stroke-linejoin: miter"/>
   </g>
   <g id="patch_39">
    <path d="M 887.544 394.592625 
L 896.472 394.592625 
L 896.472 405.435291 
L 887.544 405.435291 
z
" clip-path="url(#pd6c07bdc3f)" style="fill: #eebb89; stroke: #ffffff; stroke-linejoin: miter"/>
   </g>
   <g id="patch_40">
    <path d="M 999.144 394.592625 
L 1008.072 394.592625 
L 1008.072 406.548012 
L 999.144 406.548012 
z
" clip-path="url(#pd6c07bdc3f)" style="fill: #eebb89; stroke: #ffffff; stroke-linejoin: miter"/>
   </g>
   <g id="patch_41">
    <path d="M 1110.744 394.592625 
L 1119.672 394.592625 
L 1119.672 396.293482 
L 1110.744 396.293482 
z
" clip-path="url(#pd6c07bdc3f)" style="fill: #eebb89; stroke: #ffffff; stroke-linejoin: miter"/>
   </g>
   <g id="patch_42">
    <path d="M 1222.344 394.592625 
L 1231.272 394.592625 
L 1231.272 394.420775 
L 1222.344 394.420775 
z
" clip-path="url(#pd6c07bdc3f)" style="fill: #eebb89; stroke: #ffffff; stroke-linejoin: miter"/>
   </g>
   <g id="patch_43">
    <path d="M 226.872 394.592625 
L 235.8 394.592625 
L 235.8 205.408667 
L 226.872 205.408667 
z
" clip-path="url(#pd6c07bdc3f)" style="fill: #3a923a; stroke: #ffffff; stroke-linejoin: miter"/>
   </g>
   <g id="patch_44">
    <path d="M 338.472 394.592625 
L 347.4 394.592625 
L 347.4 185.894886 
L 338.472 185.894886 
z
" clip-path="url(#pd6c07bdc3f)" style="fill: #3a923a; stroke: #ffffff; stroke-linejoin: miter"/>
   </g>
   <g id="patch_45">
    <path d="M 450.072 394.592625 
L 459 394.592625 
L 459 288.98537 
L 450.072 288.98537 
z
" clip-path="url(#pd6c07bdc3f)" style="fill: #3a923a; stroke: #ffffff; stroke-linejoin: miter"/>
   </g>
   <g id="patch_46">
    <path d="M 561.672 394.592625 
L 570.6 394.592625 
L 570.6 356.294238 
L 561.672 356.294238 
z
" clip-path="url(#pd6c07bdc3f)" style="fill: #3a923a; stroke: #ffffff; stroke-linejoin: miter"/>
   </g>
   <g id="patch_47">
    <path d="M 673.272 394.592625 
L 682.2 394.592625 
L 682.2 440.642629 
L 673.272 440.642629 
z
" clip-path="url(#pd6c07bdc3f)" style="fill: #3a923a; stroke: #ffffff; stroke-linejoin: miter"/>
   </g>
   <g id="patch_48">
    <path d="M 784.872 394.592625 
L 793.8 394.592625 
L 793.8 406.595712 
L 784.872 406.595712 
z
" clip-path="url(#pd6c07bdc3f)" style="fill: #3a923a; stroke: #ffffff; stroke-linejoin: miter"/>
   </g>
   <g id="patch_49">
    <path d="M 896.472 394.592625 
L 905.4 394.592625 
L 905.4 330.394496 
L 896.472 330.394496 
z
" clip-path="url(#pd6c07bdc3f)" style="fill: #3a923a; stroke: #ffffff; stroke-linejoin: miter"/>
   </g>
   <g id="patch_50">
    <path d="M 1008.072 394.592625 
L 1017 394.592625 
L 1017 305.401055 
L 1008.072 305.401055 
z
" clip-path="url(#pd6c07bdc3f)" style="fill: #3a923a; stroke: #ffffff; stroke-linejoin: miter"/>
   </g>
   <g id="patch_51">
    <path d="M 1119.672 394.592625 
L 1128.6 394.592625 
L 1128.6 450.617285 
L 1119.672 450.617285 
z
" clip-path="url(#pd6c07bdc3f)" style="fill: #3a923a; stroke: #ffffff; stroke-linejoin: miter"/>
   </g>
   <g id="patch_52">
    <path d="M 1231.272 394.592625 
L 1240.2 394.592625 
L 1240.2 430.171323 
L 1231.272 430.171323 
z
" clip-path="url(#pd6c07bdc3f)" style="fill: #3a923a; stroke: #ffffff; stroke-linejoin: miter"/>
   </g>
   <g id="patch_53">
    <path d="M 235.8 394.592625 
L 244.728 394.592625 
L 244.728 206.085092 
L 235.8 206.085092 
z
" clip-path="url(#pd6c07bdc3f)" style="fill: #9fd495; stroke: #ffffff; stroke-linejoin: miter"/>
   </g>
   <g id="patch_54">
    <path d="M 347.4 394.592625 
L 356.328 394.592625 
L 356.328 212.600896 
L 347.4 212.600896 
z
" clip-path="url(#pd6c07bdc3f)" style="fill: #9fd495; stroke: #ffffff; stroke-linejoin: miter"/>
   </g>
   <g id="patch_55">
    <path d="M 459 394.592625 
L 467.928 394.592625 
L 467.928 315.746117 
L 459 315.746117 
z
" clip-path="url(#pd6c07bdc3f)" style="fill: #9fd495; stroke: #ffffff; stroke-linejoin: miter"/>
   </g>
   <g id="patch_56">
    <path d="M 570.6 394.592625 
L 579.528 394.592625 
L 579.528 363.448092 
L 570.6 363.448092 
z
" clip-path="url(#pd6c07bdc3f)" style="fill: #9fd495; stroke: #ffffff; stroke-linejoin: miter"/>
   </g>
   <g id="patch_57">
    <path d="M 682.2 394.592625 
L 691.128 394.592625 
L 691.128 420.48474 
L 682.2 420.48474 
z
" clip-path="url(#pd6c07bdc3f)" style="fill: #9fd495; stroke: #ffffff; stroke-linejoin: miter"/>
   </g>
   <g id="patch_58">
    <path d="M 793.8 394.592625 
L 802.728 394.592625 
L 802.728 388.715546 
L 793.8 388.715546 
z
" clip-path="url(#pd6c07bdc3f)" style="fill: #9fd495; stroke: #ffffff; stroke-linejoin: miter"/>
   </g>
   <g id="patch_59">
    <path d="M 905.4 394.592625 
L 914.328 394.592625 
L 914.328 362.305227 
L 905.4 362.305227 
z
" clip-path="url(#pd6c07bdc3f)" style="fill: #9fd495; stroke: #ffffff; stroke-linejoin: miter"/>
   </g>
   <g id="patch_60">
    <path d="M 1017 394.592625 
L 1025.928 394.592625 
L 1025.928 318.344974 
L 1017 318.344974 
z
" clip-path="url(#pd6c07bdc3f)" style="fill: #9fd495; stroke: #ffffff; stroke-linejoin: miter"/>
   </g>
   <g id="patch_61">
    <path d="M 1128.6 394.592625 
L 1137.528 394.592625 
L 1137.528 436.955742 
L 1128.6 436.955742 
z
" clip-path="url(#pd6c07bdc3f)" style="fill: #9fd495; stroke: #ffffff; stroke-linejoin: miter"/>
   </g>
   <g id="patch_62">
    <path d="M 1240.2 394.592625 
L 1249.128 394.592625 
L 1249.128 410.958082 
L 1240.2 410.958082 
z
" clip-path="url(#pd6c07bdc3f)" style="fill: #9fd495; stroke: #ffffff; stroke-linejoin: miter"/>
   </g>
   <g id="patch_63">
    <path d="M 244.728 394.592625 
L 253.656 394.592625 
L 253.656 194.944027 
L 244.728 194.944027 
z
" clip-path="url(#pd6c07bdc3f)" style="fill: #c03d3e; stroke: #ffffff; stroke-linejoin: miter"/>
   </g>
   <g id="patch_64">
    <path d="M 356.328 394.592625 
L 365.256 394.592625 
L 365.256 200.678841 
L 356.328 200.678841 
z
" clip-path="url(#pd6c07bdc3f)" style="fill: #c03d3e; stroke: #ffffff; stroke-linejoin: miter"/>
   </g>
   <g id="patch_65">
    <path d="M 467.928 394.592625 
L 476.856 394.592625 
L 476.856 329.508543 
L 467.928 329.508543 
z
" clip-path="url(#pd6c07bdc3f)" style="fill: #c03d3e; stroke: #ffffff; stroke-linejoin: miter"/>
   </g>
   <g id="patch_66">
    <path d="M 579.528 394.592625 
L 588.456 394.592625 
L 588.456 344.394794 
L 579.528 344.394794 
z
" clip-path="url(#pd6c07bdc3f)" style="fill: #c03d3e; stroke: #ffffff; stroke-linejoin: miter"/>
   </g>
   <g id="patch_67">
    <path d="M 691.128 394.592625 
L 700.056 394.592625 
L 700.056 397.264703 
L 691.128 397.264703 
z
" clip-path="url(#pd6c07bdc3f)" style="fill: #c03d3e; stroke: #ffffff; stroke-linejoin: miter"/>
   </g>
   <g id="patch_68">
    <path d="M 802.728 394.592625 
L 811.656 394.592625 
L 811.656 375.274117 
L 802.728 375.274117 
z
" clip-path="url(#pd6c07bdc3f)" style="fill: #c03d3e; stroke: #ffffff; stroke-linejoin: miter"/>
   </g>
   <g id="patch_69">
    <path d="M 914.328 394.592625 
L 923.256 394.592625 
L 923.256 382.097564 
L 914.328 382.097564 
z
" clip-path="url(#pd6c07bdc3f)" style="fill: #c03d3e; stroke: #ffffff; stroke-linejoin: miter"/>
   </g>
   <g id="patch_70">
    <path d="M 1025.928 394.592625 
L 1034.856 394.592625 
L 1034.856 355.798176 
L 1025.928 355.798176 
z
" clip-path="url(#pd6c07bdc3f)" style="fill: #c03d3e; stroke: #ffffff; stroke-linejoin: miter"/>
   </g>
   <g id="patch_71">
    <path d="M 1137.528 394.592625 
L 1146.456 394.592625 
L 1146.456 419.019343 
L 1137.528 419.019343 
z
" clip-path="url(#pd6c07bdc3f)" style="fill: #c03d3e; stroke: #ffffff; stroke-linejoin: miter"/>
   </g>
   <g id="patch_72">
    <path d="M 1249.128 394.592625 
L 1258.056 394.592625 
L 1258.056 396.931062 
L 1249.128 396.931062 
z
" clip-path="url(#pd6c07bdc3f)" style="fill: #c03d3e; stroke: #ffffff; stroke-linejoin: miter"/>
   </g>
   <g id="patch_73">
    <path d="M 253.656 394.592625 
L 262.584 394.592625 
L 262.584 117.40548 
L 253.656 117.40548 
z
" clip-path="url(#pd6c07bdc3f)" style="fill: #f2a5a3; stroke: #ffffff; stroke-linejoin: miter"/>
   </g>
   <g id="patch_74">
    <path d="M 365.256 394.592625 
L 374.184 394.592625 
L 374.184 125.379427 
L 365.256 125.379427 
z
" clip-path="url(#pd6c07bdc3f)" style="fill: #f2a5a3; stroke: #ffffff; stroke-linejoin: miter"/>
   </g>
   <g id="patch_75">
    <path d="M 476.856 394.592625 
L 485.784 394.592625 
L 485.784 266.92039 
L 476.856 266.92039 
z
" clip-path="url(#pd6c07bdc3f)" style="fill: #f2a5a3; stroke: #ffffff; stroke-linejoin: miter"/>
   </g>
   <g id="patch_76">
    <path d="M 588.456 394.592625 
L 597.384 394.592625 
L 597.384 279.786128 
L 588.456 279.786128 
z
" clip-path="url(#pd6c07bdc3f)" style="fill: #f2a5a3; stroke: #ffffff; stroke-linejoin: miter"/>
   </g>
   <g id="patch_77">
    <path d="M 700.056 394.592625 
L 708.984 394.592625 
L 708.984 381.378524 
L 700.056 381.378524 
z
" clip-path="url(#pd6c07bdc3f)" style="fill: #f2a5a3; stroke: #ffffff; stroke-linejoin: miter"/>
   </g>
   <g id="patch_78">
    <path d="M 811.656 394.592625 
L 820.584 394.592625 
L 820.584 338.974343 
L 811.656 338.974343 
z
" clip-path="url(#pd6c07bdc3f)" style="fill: #f2a5a3; stroke: #ffffff; stroke-linejoin: miter"/>
   </g>
   <g id="patch_79">
    <path d="M 923.256 394.592625 
L 932.184 394.592625 
L 932.184 348.479595 
L 923.256 348.479595 
z
" clip-path="url(#pd6c07bdc3f)" style="fill: #f2a5a3; stroke: #ffffff; stroke-linejoin: miter"/>
   </g>
   <g id="patch_80">
    <path d="M 1034.856 394.592625 
L 1043.784 394.592625 
L 1043.784 302.834088 
L 1034.856 302.834088 
z
" clip-path="url(#pd6c07bdc3f)" style="fill: #f2a5a3; stroke: #ffffff; stroke-linejoin: miter"/>
   </g>
   <g id="patch_81">
    <path d="M 1146.456 394.592625 
L 1155.384 394.592625 
L 1155.384 414.044039 
L 1146.456 414.044039 
z
" clip-path="url(#pd6c07bdc3f)" style="fill: #f2a5a3; stroke: #ffffff; stroke-linejoin: miter"/>
   </g>
   <g id="patch_82">
    <path d="M 1258.056 394.592625 
L 1266.984 394.592625 
L 1266.984 421.729043 
L 1258.056 421.729043 
z
" clip-path="url(#pd6c07bdc3f)" style="fill: #f2a5a3; stroke: #ffffff; stroke-linejoin: miter"/>
   </g>
   <g id="patch_83">
    <path d="M 262.584 394.592625 
L 271.512 394.592625 
L 271.512 114.453617 
L 262.584 114.453617 
z
" clip-path="url(#pd6c07bdc3f)" style="fill: #9372b2; stroke: #ffffff; stroke-linejoin: miter"/>
   </g>
   <g id="patch_84">
    <path d="M 374.184 394.592625 
L 383.112 394.592625 
L 383.112 146.838526 
L 374.184 146.838526 
z
" clip-path="url(#pd6c07bdc3f)" style="fill: #9372b2; stroke: #ffffff; stroke-linejoin: miter"/>
   </g>
   <g id="patch_85">
    <path d="M 485.784 394.592625 
L 494.712 394.592625 
L 494.712 281.251785 
L 485.784 281.251785 
z
" clip-path="url(#pd6c07bdc3f)" style="fill: #9372b2; stroke: #ffffff; stroke-linejoin: miter"/>
   </g>
   <g id="patch_86">
    <path d="M 597.384 394.592625 
L 606.312 394.592625 
L 606.312 304.144919 
L 597.384 304.144919 
z
" clip-path="url(#pd6c07bdc3f)" style="fill: #9372b2; stroke: #ffffff; stroke-linejoin: miter"/>
   </g>
   <g id="patch_87">
    <path d="M 708.984 394.592625 
L 717.912 394.592625 
L 717.912 410.918505 
L 708.984 410.918505 
z
" clip-path="url(#pd6c07bdc3f)" style="fill: #9372b2; stroke: #ffffff; stroke-linejoin: miter"/>
   </g>
   <g id="patch_88">
    <path d="M 820.584 394.592625 
L 829.512 394.592625 
L 829.512 349.58808 
L 820.584 349.58808 
z
" clip-path="url(#pd6c07bdc3f)" style="fill: #9372b2; stroke: #ffffff; stroke-linejoin: miter"/>
   </g>
   <g id="patch_89">
    <path d="M 932.184 394.592625 
L 941.112 394.592625 
L 941.112 364.619928 
L 932.184 364.619928 
z
" clip-path="url(#pd6c07bdc3f)" style="fill: #9372b2; stroke: #ffffff; stroke-linejoin: miter"/>
   </g>
   <g id="patch_90">
    <path d="M 1043.784 394.592625 
L 1052.712 394.592625 
L 1052.712 305.105484 
L 1043.784 305.105484 
z
" clip-path="url(#pd6c07bdc3f)" style="fill: #9372b2; stroke: #ffffff; stroke-linejoin: miter"/>
   </g>
   <g id="patch_91">
    <path d="M 1155.384 394.592625 
L 1164.312 394.592625 
L 1164.312 444.383395 
L 1155.384 444.383395 
z
" clip-path="url(#pd6c07bdc3f)" style="fill: #9372b2; stroke: #ffffff; stroke-linejoin: miter"/>
   </g>
   <g id="patch_92">
    <path d="M 1266.984 394.592625 
L 1275.912 394.592625 
L 1275.912 428.31976 
L 1266.984 428.31976 
z
" clip-path="url(#pd6c07bdc3f)" style="fill: #9372b2; stroke: #ffffff; stroke-linejoin: miter"/>
   </g>
   <g id="patch_93">
    <path d="M 271.512 394.592625 
L 280.44 394.592625 
L 280.44 111.639927 
L 271.512 111.639927 
z
" clip-path="url(#pd6c07bdc3f)" style="fill: #c4b5d0; stroke: #ffffff; stroke-linejoin: miter"/>
   </g>
   <g id="patch_94">
    <path d="M 383.112 394.592625 
L 392.04 394.592625 
L 392.04 233.781793 
L 383.112 233.781793 
z
" clip-path="url(#pd6c07bdc3f)" style="fill: #c4b5d0; stroke: #ffffff; stroke-linejoin: miter"/>
   </g>
   <g id="patch_95">
    <path d="M 494.712 394.592625 
L 503.64 394.592625 
L 503.64 356.111943 
L 494.712 356.111943 
z
" clip-path="url(#pd6c07bdc3f)" style="fill: #c4b5d0; stroke: #ffffff; stroke-linejoin: miter"/>
   </g>
   <g id="patch_96">
    <path d="M 606.312 394.592625 
L 615.24 394.592625 
L 615.24 406.255719 
L 606.312 406.255719 
z
" clip-path="url(#pd6c07bdc3f)" style="fill: #c4b5d0; stroke: #ffffff; stroke-linejoin: miter"/>
   </g>
   <g id="patch_97">
    <path d="M 717.912 394.592625 
L 726.84 394.592625 
L 726.84 448.210396 
L 717.912 448.210396 
z
" clip-path="url(#pd6c07bdc3f)" style="fill: #c4b5d0; stroke: #ffffff; stroke-linejoin: miter"/>
   </g>
   <g id="patch_98">
    <path d="M 829.512 394.592625 
L 838.44 394.592625 
L 838.44 487.03936 
L 829.512 487.03936 
z
" clip-path="url(#pd6c07bdc3f)" style="fill: #c4b5d0; stroke: #ffffff; stroke-linejoin: miter"/>
   </g>
   <g id="patch_99">
    <path d="M 941.112 394.592625 
L 950.04 394.592625 
L 950.04 421.376781 
L 941.112 421.376781 
z
" clip-path="url(#pd6c07bdc3f)" style="fill: #c4b5d0; stroke: #ffffff; stroke-linejoin: miter"/>
   </g>
   <g id="patch_100">
    <path d="M 1052.712 394.592625 
L 1061.64 394.592625 
L 1061.64 394.426869 
L 1052.712 394.426869 
z
" clip-path="url(#pd6c07bdc3f)" style="fill: #c4b5d0; stroke: #ffffff; stroke-linejoin: miter"/>
   </g>
   <g id="patch_101">
    <path d="M 1164.312 394.592625 
L 1173.24 394.592625 
L 1173.24 450.5613 
L 1164.312 450.5613 
z
" clip-path="url(#pd6c07bdc3f)" style="fill: #c4b5d0; stroke: #ffffff; stroke-linejoin: miter"/>
   </g>
   <g id="patch_102">
    <path d="M 1275.912 394.592625 
L 1284.84 394.592625 
L 1284.84 413.965572 
L 1275.912 413.965572 
z
" clip-path="url(#pd6c07bdc3f)" style="fill: #c4b5d0; stroke: #ffffff; stroke-linejoin: miter"/>
   </g>
   <g id="line2d_8">
    <path d="M 195.624 488.591239 
L 195.624 468.551609 
" clip-path="url(#pd6c07bdc3f)" style="fill: none; stroke: #424242; stroke-width: 2.7; stroke-linecap: round"/>
   </g>
   <g id="line2d_9">
    <path d="M 307.224 412.748746 
L 307.224 401.09847 
" clip-path="url(#pd6c07bdc3f)" style="fill: none; stroke: #424242; stroke-width: 2.7; stroke-linecap: round"/>
   </g>
   <g id="line2d_10">
    <path d="M 418.824 381.688595 
L 418.824 375.234954 
" clip-path="url(#pd6c07bdc3f)" style="fill: none; stroke: #424242; stroke-width: 2.7; stroke-linecap: round"/>
   </g>
   <g id="line2d_11">
    <path d="M 530.424 341.749849 
L 530.424 318.206412 
" clip-path="url(#pd6c07bdc3f)" style="fill: none; stroke: #424242; stroke-width: 2.7; stroke-linecap: round"/>
   </g>
   <g id="line2d_12">
    <path d="M 642.024 404.257895 
L 642.024 392.060874 
" clip-path="url(#pd6c07bdc3f)" style="fill: none; stroke: #424242; stroke-width: 2.7; stroke-linecap: round"/>
   </g>
   <g id="line2d_13">
    <path d="M 753.624 376.49603 
L 753.624 372.547944 
" clip-path="url(#pd6c07bdc3f)" style="fill: none; stroke: #424242; stroke-width: 2.7; stroke-linecap: round"/>
   </g>
   <g id="line2d_14">
    <path d="M 865.224 401.250553 
L 865.224 372.892387 
" clip-path="url(#pd6c07bdc3f)" style="fill: none; stroke: #424242; stroke-width: 2.7; stroke-linecap: round"/>
   </g>
   <g id="line2d_15">
    <path d="M 976.824 437.763653 
L 976.824 409.441755 
" clip-path="url(#pd6c07bdc3f)" style="fill: none; stroke: #424242; stroke-width: 2.7; stroke-linecap: round"/>
   </g>
   <g id="line2d_16">
    <path d="M 1088.424 404.922495 
L 1088.424 399.621672 
" clip-path="url(#pd6c07bdc3f)" style="fill: none; stroke: #424242; stroke-width: 2.7; stroke-linecap: round"/>
   </g>
   <g id="line2d_17">
    <path d="M 1200.024 432.115044 
L 1200.024 423.324952 
" clip-path="url(#pd6c07bdc3f)" style="fill: none; stroke: #424242; stroke-width: 2.7; stroke-linecap: round"/>
   </g>
   <g id="line2d_18">
    <path d="M 204.552 358.215761 
L 204.552 340.849737 
" clip-path="url(#pd6c07bdc3f)" style="fill: none; stroke: #424242; stroke-width: 2.7; stroke-linecap: round"/>
   </g>
   <g id="line2d_19">
    <path d="M 316.152 381.226562 
L 316.152 360.618538 
" clip-path="url(#pd6c07bdc3f)" style="fill: none; stroke: #424242; stroke-width: 2.7; stroke-linecap: round"/>
   </g>
   <g id="line2d_20">
    <path d="M 427.752 316.676352 
L 427.752 305.277146 
" clip-path="url(#pd6c07bdc3f)" style="fill: none; stroke: #424242; stroke-width: 2.7; stroke-linecap: round"/>
   </g>
   <g id="line2d_21">
    <path d="M 539.352 367.81183 
L 539.352 339.399717 
" clip-path="url(#pd6c07bdc3f)" style="fill: none; stroke: #424242; stroke-width: 2.7; stroke-linecap: round"/>
   </g>
   <g id="line2d_22">
    <path d="M 650.952 455.824974 
L 650.952 441.520406 
" clip-path="url(#pd6c07bdc3f)" style="fill: none; stroke: #424242; stroke-width: 2.7; stroke-linecap: round"/>
   </g>
   <g id="line2d_23">
    <path d="M 762.552 409.716266 
L 762.552 402.122 
" clip-path="url(#pd6c07bdc3f)" style="fill: none; stroke: #424242; stroke-width: 2.7; stroke-linecap: round"/>
   </g>
   <g id="line2d_24">
    <path d="M 874.152 329.570048 
L 874.152 300.751577 
" clip-path="url(#pd6c07bdc3f)" style="fill: none; stroke: #424242; stroke-width: 2.7; stroke-linecap: round"/>
   </g>
   <g id="line2d_25">
    <path d="M 985.752 341.770828 
L 985.752 293.590524 
" clip-path="url(#pd6c07bdc3f)" style="fill: none; stroke: #424242; stroke-width: 2.7; stroke-linecap: round"/>
   </g>
   <g id="line2d_26">
    <path d="M 1097.352 450.362856 
L 1097.352 440.810693 
" clip-path="url(#pd6c07bdc3f)" style="fill: none; stroke: #424242; stroke-width: 2.7; stroke-linecap: round"/>
   </g>
   <g id="line2d_27">
    <path d="M 1208.952 409.329115 
L 1208.952 393.361641 
" clip-path="url(#pd6c07bdc3f)" style="fill: none; stroke: #424242; stroke-width: 2.7; stroke-linecap: round"/>
   </g>
   <g id="line2d_28">
    <path d="M 213.48 293.197928 
L 213.48 268.720285 
" clip-path="url(#pd6c07bdc3f)" style="fill: none; stroke: #424242; stroke-width: 2.7; stroke-linecap: round"/>
   </g>
   <g id="line2d_29">
    <path d="M 325.08 244.812624 
L 325.08 222.991601 
" clip-path="url(#pd6c07bdc3f)" style="fill: none; stroke: #424242; stroke-width: 2.7; stroke-linecap: round"/>
   </g>
   <g id="line2d_30">
    <path d="M 436.68 349.311044 
L 436.68 339.10379 
" clip-path="url(#pd6c07bdc3f)" style="fill: none; stroke: #424242; stroke-width: 2.7; stroke-linecap: round"/>
   </g>
   <g id="line2d_31">
    <path d="M 548.28 334.904174 
L 548.28 307.90481 
" clip-path="url(#pd6c07bdc3f)" style="fill: none; stroke: #424242; stroke-width: 2.7; stroke-linecap: round"/>
   </g>
   <g id="line2d_32">
    <path d="M 659.88 360.14938 
L 659.88 349.081155 
" clip-path="url(#pd6c07bdc3f)" style="fill: none; stroke: #424242; stroke-width: 2.7; stroke-linecap: round"/>
   </g>
   <g id="line2d_33">
    <path d="M 771.48 350.336653 
L 771.48 344.167042 
" clip-path="url(#pd6c07bdc3f)" style="fill: none; stroke: #424242; stroke-width: 2.7; stroke-linecap: round"/>
   </g>
   <g id="line2d_34">
    <path d="M 883.08 374.051481 
L 883.08 345.081162 
" clip-path="url(#pd6c07bdc3f)" style="fill: none; stroke: #424242; stroke-width: 2.7; stroke-linecap: round"/>
   </g>
   <g id="line2d_35">
    <path d="M 994.68 338.476148 
L 994.68 303.836869 
" clip-path="url(#pd6c07bdc3f)" style="fill: none; stroke: #424242; stroke-width: 2.7; stroke-linecap: round"/>
   </g>
   <g id="line2d_36">
    <path d="M 1106.28 383.76121 
L 1106.28 378.116763 
" clip-path="url(#pd6c07bdc3f)" style="fill: none; stroke: #424242; stroke-width: 2.7; stroke-linecap: round"/>
   </g>
   <g id="line2d_37">
    <path d="M 1217.88 381.402884 
L 1217.88 372.656309 
" clip-path="url(#pd6c07bdc3f)" style="fill: none; stroke: #424242; stroke-width: 2.7; stroke-linecap: round"/>
   </g>
   <g id="line2d_38">
    <path d="M 222.408 311.100928 
L 222.408 290.46544 
" clip-path="url(#pd6c07bdc3f)" style="fill: none; stroke: #424242; stroke-width: 2.7; stroke-linecap: round"/>
   </g>
   <g id="line2d_39">
    <path d="M 334.008 364.037624 
L 334.008 348.88288 
" clip-path="url(#pd6c07bdc3f)" style="fill: none; stroke: #424242; stroke-width: 2.7; stroke-linecap: round"/>
   </g>
   <g id="line2d_40">
    <path d="M 445.608 399.45247 
L 445.608 392.096986 
" clip-path="url(#pd6c07bdc3f)" style="fill: none; stroke: #424242; stroke-width: 2.7; stroke-linecap: round"/>
   </g>
   <g id="line2d_41">
    <path d="M 557.208 392.784843 
L 557.208 367.242916 
" clip-path="url(#pd6c07bdc3f)" style="fill: none; stroke: #424242; stroke-width: 2.7; stroke-linecap: round"/>
   </g>
   <g id="line2d_42">
    <path d="M 668.808 408.094689 
L 668.808 396.096058 
" clip-path="url(#pd6c07bdc3f)" style="fill: none; stroke: #424242; stroke-width: 2.7; stroke-linecap: round"/>
   </g>
   <g id="line2d_43">
    <path d="M 780.408 428.072055 
L 780.408 422.533464 
" clip-path="url(#pd6c07bdc3f)" style="fill: none; stroke: #424242; stroke-width: 2.7; stroke-linecap: round"/>
   </g>
   <g id="line2d_44">
    <path d="M 892.008 419.803122 
L 892.008 389.130115 
" clip-path="url(#pd6c07bdc3f)" style="fill: none; stroke: #424242; stroke-width: 2.7; stroke-linecap: round"/>
   </g>
   <g id="line2d_45">
    <path d="M 1003.608 426.502385 
L 1003.608 385.551894 
" clip-path="url(#pd6c07bdc3f)" style="fill: none; stroke: #424242; stroke-width: 2.7; stroke-linecap: round"/>
   </g>
   <g id="line2d_46">
    <path d="M 1115.208 398.708698 
L 1115.208 393.871033 
" clip-path="url(#pd6c07bdc3f)" style="fill: none; stroke: #424242; stroke-width: 2.7; stroke-linecap: round"/>
   </g>
   <g id="line2d_47">
    <path d="M 1226.808 400.095584 
L 1226.808 388.739215 
" clip-path="url(#pd6c07bdc3f)" style="fill: none; stroke: #424242; stroke-width: 2.7; stroke-linecap: round"/>
   </g>
   <g id="line2d_48">
    <path d="M 231.336 223.520626 
L 231.336 186.931213 
" clip-path="url(#pd6c07bdc3f)" style="fill: none; stroke: #424242; stroke-width: 2.7; stroke-linecap: round"/>
   </g>
   <g id="line2d_49">
    <path d="M 342.936 204.297414 
L 342.936 169.209923 
" clip-path="url(#pd6c07bdc3f)" style="fill: none; stroke: #424242; stroke-width: 2.7; stroke-linecap: round"/>
   </g>
   <g id="line2d_50">
    <path d="M 454.536 295.413907 
L 454.536 282.416199 
" clip-path="url(#pd6c07bdc3f)" style="fill: none; stroke: #424242; stroke-width: 2.7; stroke-linecap: round"/>
   </g>
   <g id="line2d_51">
    <path d="M 566.136 368.60069 
L 566.136 342.682301 
" clip-path="url(#pd6c07bdc3f)" style="fill: none; stroke: #424242; stroke-width: 2.7; stroke-linecap: round"/>
   </g>
   <g id="line2d_52">
    <path d="M 677.736 447.118502 
L 677.736 433.866418 
" clip-path="url(#pd6c07bdc3f)" style="fill: none; stroke: #424242; stroke-width: 2.7; stroke-linecap: round"/>
   </g>
   <g id="line2d_53">
    <path d="M 789.336 411.485396 
L 789.336 402.215132 
" clip-path="url(#pd6c07bdc3f)" style="fill: none; stroke: #424242; stroke-width: 2.7; stroke-linecap: round"/>
   </g>
   <g id="line2d_54">
    <path d="M 900.936 345.866012 
L 900.936 312.701568 
" clip-path="url(#pd6c07bdc3f)" style="fill: none; stroke: #424242; stroke-width: 2.7; stroke-linecap: round"/>
   </g>
   <g id="line2d_55">
    <path d="M 1012.536 333.575623 
L 1012.536 271.54397 
" clip-path="url(#pd6c07bdc3f)" style="fill: none; stroke: #424242; stroke-width: 2.7; stroke-linecap: round"/>
   </g>
   <g id="line2d_56">
    <path d="M 1124.136 455.604881 
L 1124.136 445.631605 
" clip-path="url(#pd6c07bdc3f)" style="fill: none; stroke: #424242; stroke-width: 2.7; stroke-linecap: round"/>
   </g>
   <g id="line2d_57">
    <path d="M 1235.736 439.006527 
L 1235.736 421.331943 
" clip-path="url(#pd6c07bdc3f)" style="fill: none; stroke: #424242; stroke-width: 2.7; stroke-linecap: round"/>
   </g>
   <g id="line2d_58">
    <path d="M 240.264 223.068207 
L 240.264 189.005608 
" clip-path="url(#pd6c07bdc3f)" style="fill: none; stroke: #424242; stroke-width: 2.7; stroke-linecap: round"/>
   </g>
   <g id="line2d_59">
    <path d="M 351.864 230.539346 
L 351.864 195.611474 
" clip-path="url(#pd6c07bdc3f)" style="fill: none; stroke: #424242; stroke-width: 2.7; stroke-linecap: round"/>
   </g>
   <g id="line2d_60">
    <path d="M 463.464 324.062135 
L 463.464 307.11099 
" clip-path="url(#pd6c07bdc3f)" style="fill: none; stroke: #424242; stroke-width: 2.7; stroke-linecap: round"/>
   </g>
   <g id="line2d_61">
    <path d="M 575.064 376.574392 
L 575.064 349.166315 
" clip-path="url(#pd6c07bdc3f)" style="fill: none; stroke: #424242; stroke-width: 2.7; stroke-linecap: round"/>
   </g>
   <g id="line2d_62">
    <path d="M 686.664 427.221244 
L 686.664 413.020441 
" clip-path="url(#pd6c07bdc3f)" style="fill: none; stroke: #424242; stroke-width: 2.7; stroke-linecap: round"/>
   </g>
   <g id="line2d_63">
    <path d="M 798.264 394.601512 
L 798.264 382.64837 
" clip-path="url(#pd6c07bdc3f)" style="fill: none; stroke: #424242; stroke-width: 2.7; stroke-linecap: round"/>
   </g>
   <g id="line2d_64">
    <path d="M 909.864 383.850283 
L 909.864 338.800333 
" clip-path="url(#pd6c07bdc3f)" style="fill: none; stroke: #424242; stroke-width: 2.7; stroke-linecap: round"/>
   </g>
   <g id="line2d_65">
    <path d="M 1021.464 357.315796 
L 1021.464 279.426734 
" clip-path="url(#pd6c07bdc3f)" style="fill: none; stroke: #424242; stroke-width: 2.7; stroke-linecap: round"/>
   </g>
   <g id="line2d_66">
    <path d="M 1133.064 441.295704 
L 1133.064 432.35296 
" clip-path="url(#pd6c07bdc3f)" style="fill: none; stroke: #424242; stroke-width: 2.7; stroke-linecap: round"/>
   </g>
   <g id="line2d_67">
    <path d="M 1244.664 420.714164 
L 1244.664 401.105331 
" clip-path="url(#pd6c07bdc3f)" style="fill: none; stroke: #424242; stroke-width: 2.7; stroke-linecap: round"/>
   </g>
   <g id="line2d_68">
    <path d="M 249.192 212.645304 
L 249.192 178.605845 
" clip-path="url(#pd6c07bdc3f)" style="fill: none; stroke: #424242; stroke-width: 2.7; stroke-linecap: round"/>
   </g>
   <g id="line2d_69">
    <path d="M 360.792 217.830024 
L 360.792 184.04682 
" clip-path="url(#pd6c07bdc3f)" style="fill: none; stroke: #424242; stroke-width: 2.7; stroke-linecap: round"/>
   </g>
   <g id="line2d_70">
    <path d="M 472.392 337.798633 
L 472.392 320.70715 
" clip-path="url(#pd6c07bdc3f)" style="fill: none; stroke: #424242; stroke-width: 2.7; stroke-linecap: round"/>
   </g>
   <g id="line2d_71">
    <path d="M 583.992 356.813502 
L 583.992 330.868934 
" clip-path="url(#pd6c07bdc3f)" style="fill: none; stroke: #424242; stroke-width: 2.7; stroke-linecap: round"/>
   </g>
   <g id="line2d_72">
    <path d="M 695.592 403.601404 
L 695.592 390.863321 
" clip-path="url(#pd6c07bdc3f)" style="fill: none; stroke: #424242; stroke-width: 2.7; stroke-linecap: round"/>
   </g>
   <g id="line2d_73">
    <path d="M 807.192 381.674784 
L 807.192 368.874106 
" clip-path="url(#pd6c07bdc3f)" style="fill: none; stroke: #424242; stroke-width: 2.7; stroke-linecap: round"/>
   </g>
   <g id="line2d_74">
    <path d="M 918.792 405.744217 
L 918.792 358.133078 
" clip-path="url(#pd6c07bdc3f)" style="fill: none; stroke: #424242; stroke-width: 2.7; stroke-linecap: round"/>
   </g>
   <g id="line2d_75">
    <path d="M 1030.392 396.89588 
L 1030.392 310.5759 
" clip-path="url(#pd6c07bdc3f)" style="fill: none; stroke: #424242; stroke-width: 2.7; stroke-linecap: round"/>
   </g>
   <g id="line2d_76">
    <path d="M 1141.992 423.430607 
L 1141.992 414.782694 
" clip-path="url(#pd6c07bdc3f)" style="fill: none; stroke: #424242; stroke-width: 2.7; stroke-linecap: round"/>
   </g>
   <g id="line2d_77">
    <path d="M 1253.592 407.01268 
L 1253.592 386.529132 
" clip-path="url(#pd6c07bdc3f)" style="fill: none; stroke: #424242; stroke-width: 2.7; stroke-linecap: round"/>
   </g>
   <g id="line2d_78">
    <path d="M 258.12 140.016111 
L 258.12 94.718747 
" clip-path="url(#pd6c07bdc3f)" style="fill: none; stroke: #424242; stroke-width: 2.7; stroke-linecap: round"/>
   </g>
   <g id="line2d_79">
    <path d="M 369.72 145.40421 
L 369.72 104.603851 
" clip-path="url(#pd6c07bdc3f)" style="fill: none; stroke: #424242; stroke-width: 2.7; stroke-linecap: round"/>
   </g>
   <g id="line2d_80">
    <path d="M 481.32 277.652676 
L 481.32 256.189467 
" clip-path="url(#pd6c07bdc3f)" style="fill: none; stroke: #424242; stroke-width: 2.7; stroke-linecap: round"/>
   </g>
   <g id="line2d_81">
    <path d="M 592.92 292.436183 
L 592.92 266.364988 
" clip-path="url(#pd6c07bdc3f)" style="fill: none; stroke: #424242; stroke-width: 2.7; stroke-linecap: round"/>
   </g>
   <g id="line2d_82">
    <path d="M 704.52 387.859794 
L 704.52 373.885449 
" clip-path="url(#pd6c07bdc3f)" style="fill: none; stroke: #424242; stroke-width: 2.7; stroke-linecap: round"/>
   </g>
   <g id="line2d_83">
    <path d="M 816.12 346.470726 
L 816.12 330.977202 
" clip-path="url(#pd6c07bdc3f)" style="fill: none; stroke: #424242; stroke-width: 2.7; stroke-linecap: round"/>
   </g>
   <g id="line2d_84">
    <path d="M 927.72 375.039963 
L 927.72 322.690166 
" clip-path="url(#pd6c07bdc3f)" style="fill: none; stroke: #424242; stroke-width: 2.7; stroke-linecap: round"/>
   </g>
   <g id="line2d_85">
    <path d="M 1039.32 351.692516 
L 1039.32 247.154659 
" clip-path="url(#pd6c07bdc3f)" style="fill: none; stroke: #424242; stroke-width: 2.7; stroke-linecap: round"/>
   </g>
   <g id="line2d_86">
    <path d="M 1150.92 418.806252 
L 1150.92 408.893352 
" clip-path="url(#pd6c07bdc3f)" style="fill: none; stroke: #424242; stroke-width: 2.7; stroke-linecap: round"/>
   </g>
   <g id="line2d_87">
    <path d="M 1262.52 434.919467 
L 1262.52 408.684556 
" clip-path="url(#pd6c07bdc3f)" style="fill: none; stroke: #424242; stroke-width: 2.7; stroke-linecap: round"/>
   </g>
   <g id="line2d_88">
    <path d="M 267.048 136.710012 
L 267.048 89.835889 
" clip-path="url(#pd6c07bdc3f)" style="fill: none; stroke: #424242; stroke-width: 2.7; stroke-linecap: round"/>
   </g>
   <g id="line2d_89">
    <path d="M 378.648 167.953213 
L 378.648 125.643811 
" clip-path="url(#pd6c07bdc3f)" style="fill: none; stroke: #424242; stroke-width: 2.7; stroke-linecap: round"/>
   </g>
   <g id="line2d_90">
    <path d="M 490.248 292.063737 
L 490.248 271.014862 
" clip-path="url(#pd6c07bdc3f)" style="fill: none; stroke: #424242; stroke-width: 2.7; stroke-linecap: round"/>
   </g>
   <g id="line2d_91">
    <path d="M 601.848 317.234061 
L 601.848 289.796235 
" clip-path="url(#pd6c07bdc3f)" style="fill: none; stroke: #424242; stroke-width: 2.7; stroke-linecap: round"/>
   </g>
   <g id="line2d_92">
    <path d="M 713.448 418.445224 
L 713.448 402.931655 
" clip-path="url(#pd6c07bdc3f)" style="fill: none; stroke: #424242; stroke-width: 2.7; stroke-linecap: round"/>
   </g>
   <g id="line2d_93">
    <path d="M 825.048 357.901684 
L 825.048 341.119169 
" clip-path="url(#pd6c07bdc3f)" style="fill: none; stroke: #424242; stroke-width: 2.7; stroke-linecap: round"/>
   </g>
   <g id="line2d_94">
    <path d="M 936.648 394.478531 
L 936.648 339.151401 
" clip-path="url(#pd6c07bdc3f)" style="fill: none; stroke: #424242; stroke-width: 2.7; stroke-linecap: round"/>
   </g>
   <g id="line2d_95">
    <path d="M 1048.248 368.570329 
L 1048.248 243.85479 
" clip-path="url(#pd6c07bdc3f)" style="fill: none; stroke: #424242; stroke-width: 2.7; stroke-linecap: round"/>
   </g>
   <g id="line2d_96">
    <path d="M 1159.848 450.21214 
L 1159.848 438.434868 
" clip-path="url(#pd6c07bdc3f)" style="fill: none; stroke: #424242; stroke-width: 2.7; stroke-linecap: round"/>
   </g>
   <g id="line2d_97">
    <path d="M 1271.448 442.924472 
L 1271.448 414.432107 
" clip-path="url(#pd6c07bdc3f)" style="fill: none; stroke: #424242; stroke-width: 2.7; stroke-linecap: round"/>
   </g>
   <g id="line2d_98">
    <path d="M 275.976 134.389886 
L 275.976 89.28 
" clip-path="url(#pd6c07bdc3f)" style="fill: none; stroke: #424242; stroke-width: 2.7; stroke-linecap: round"/>
   </g>
   <g id="line2d_99">
    <path d="M 387.576 251.470397 
L 387.576 214.548284 
" clip-path="url(#pd6c07bdc3f)" style="fill: none; stroke: #424242; stroke-width: 2.7; stroke-linecap: round"/>
   </g>
   <g id="line2d_100">
    <path d="M 499.176 364.065829 
L 499.176 347.120493 
" clip-path="url(#pd6c07bdc3f)" style="fill: none; stroke: #424242; stroke-width: 2.7; stroke-linecap: round"/>
   </g>
   <g id="line2d_101">
    <path d="M 610.776 420.048347 
L 610.776 392.818394 
" clip-path="url(#pd6c07bdc3f)" style="fill: none; stroke: #424242; stroke-width: 2.7; stroke-linecap: round"/>
   </g>
   <g id="line2d_102">
    <path d="M 722.376 455.075931 
L 722.376 441.038723 
" clip-path="url(#pd6c07bdc3f)" style="fill: none; stroke: #424242; stroke-width: 2.7; stroke-linecap: round"/>
   </g>
   <g id="line2d_103">
    <path d="M 833.976 492.48 
L 833.976 481.952875 
" clip-path="url(#pd6c07bdc3f)" style="fill: none; stroke: #424242; stroke-width: 2.7; stroke-linecap: round"/>
   </g>
   <g id="line2d_104">
    <path d="M 945.576 441.378754 
L 945.576 396.570736 
" clip-path="url(#pd6c07bdc3f)" style="fill: none; stroke: #424242; stroke-width: 2.7; stroke-linecap: round"/>
   </g>
   <g id="line2d_105">
    <path d="M 1057.176 435.77057 
L 1057.176 348.128473 
" clip-path="url(#pd6c07bdc3f)" style="fill: none; stroke: #424242; stroke-width: 2.7; stroke-linecap: round"/>
   </g>
   <g id="line2d_106">
    <path d="M 1168.776 455.108016 
L 1168.776 445.98675 
" clip-path="url(#pd6c07bdc3f)" style="fill: none; stroke: #424242; stroke-width: 2.7; stroke-linecap: round"/>
   </g>
   <g id="line2d_107">
    <path d="M 1280.376 426.826241 
L 1280.376 401.706011 
" clip-path="url(#pd6c07bdc3f)" style="fill: none; stroke: #424242; stroke-width: 2.7; stroke-linecap: round"/>
   </g>
   <g id="patch_103">
    <path d="M 180 512.64 
L 180 69.12 
" style="fill: none; stroke: #cccccc; stroke-width: 0.8; stroke-linejoin: miter; stroke-linecap: square"/>
   </g>
   <g id="patch_104">
    <path d="M 1296 512.64 
L 1296 69.12 
" style="fill: none; stroke: #cccccc; stroke-width: 0.8; stroke-linejoin: miter; stroke-linecap: square"/>
   </g>
   <g id="patch_105">
    <path d="M 180 512.64 
L 1296 512.64 
" style="fill: none; stroke: #cccccc; stroke-width: 0.8; stroke-linejoin: miter; stroke-linecap: square"/>
   </g>
   <g id="patch_106">
    <path d="M 180 69.12 
L 1296 69.12 
" style="fill: none; stroke: #cccccc; stroke-width: 0.8; stroke-linejoin: miter; stroke-linecap: square"/>
   </g>
   <g id="text_20">
    <!-- Correlation -->
    <g style="fill: #262626" transform="translate(704.9175 63.12)scale(0.12 -0.12)">
     <use xlink:href="#DejaVuSans-43"/>
     <use xlink:href="#DejaVuSans-6f" x="69.824219"/>
     <use xlink:href="#DejaVuSans-72" x="131.005859"/>
     <use xlink:href="#DejaVuSans-72" x="170.369141"/>
     <use xlink:href="#DejaVuSans-65" x="209.232422"/>
     <use xlink:href="#DejaVuSans-6c" x="270.755859"/>
     <use xlink:href="#DejaVuSans-61" x="298.539062"/>
     <use xlink:href="#DejaVuSans-74" x="359.818359"/>
     <use xlink:href="#DejaVuSans-69" x="399.027344"/>
     <use xlink:href="#DejaVuSans-6f" x="426.810547"/>
     <use xlink:href="#DejaVuSans-6e" x="487.992188"/>
    </g>
   </g>
   <g id="legend_1">
    <g id="patch_107">
     <path d="M 1179.967187 238.579375 
L 1289 238.579375 
Q 1291 238.579375 1291 236.579375 
L 1291 76.12 
Q 1291 74.12 1289 74.12 
L 1179.967187 74.12 
Q 1177.967187 74.12 1177.967187 76.12 
L 1177.967187 236.579375 
Q 1177.967187 238.579375 1179.967187 238.579375 
z
" style="fill: #ffffff; opacity: 0.8; stroke: #cccccc; stroke-linejoin: miter"/>
    </g>
    <g id="text_21">
     <!-- type -->
     <g style="fill: #262626" transform="translate(1223.313281 85.718438)scale(0.1 -0.1)">
      <defs>
       <path id="DejaVuSans-79" d="M 2059 -325 
Q 1816 -950 1584 -1140 
Q 1353 -1331 966 -1331 
L 506 -1331 
L 506 -850 
L 844 -850 
Q 1081 -850 1212 -737 
Q 1344 -625 1503 -206 
L 1606 56 
L 191 3500 
L 800 3500 
L 1894 763 
L 2988 3500 
L 3597 3500 
L 2059 -325 
z
" transform="scale(0.015625)"/>
      </defs>
      <use xlink:href="#DejaVuSans-74"/>
      <use xlink:href="#DejaVuSans-79" x="39.208984"/>
      <use xlink:href="#DejaVuSans-70" x="98.388672"/>
      <use xlink:href="#DejaVuSans-65" x="161.865234"/>
     </g>
    </g>
    <g id="patch_108">
     <path d="M 1181.967187 100.396563 
L 1201.967187 100.396563 
L 1201.967187 93.396563 
L 1181.967187 93.396563 
z
" style="fill: #3274a1; stroke: #ffffff; stroke-linejoin: miter"/>
    </g>
    <g id="text_22">
     <!-- Luminance -->
     <g style="fill: #262626" transform="translate(1209.967187 100.396563)scale(0.1 -0.1)">
      <defs>
       <path id="DejaVuSans-4c" d="M 628 4666 
L 1259 4666 
L 1259 531 
L 3531 531 
L 3531 0 
L 628 0 
L 628 4666 
z
" transform="scale(0.015625)"/>
       <path id="DejaVuSans-75" d="M 544 1381 
L 544 3500 
L 1119 3500 
L 1119 1403 
Q 1119 906 1312 657 
Q 1506 409 1894 409 
Q 2359 409 2629 706 
Q 2900 1003 2900 1516 
L 2900 3500 
L 3475 3500 
L 3475 0 
L 2900 0 
L 2900 538 
Q 2691 219 2414 64 
Q 2138 -91 1772 -91 
Q 1169 -91 856 284 
Q 544 659 544 1381 
z
M 1991 3584 
L 1991 3584 
z
" transform="scale(0.015625)"/>
       <path id="DejaVuSans-6d" d="M 3328 2828 
Q 3544 3216 3844 3400 
Q 4144 3584 4550 3584 
Q 5097 3584 5394 3201 
Q 5691 2819 5691 2113 
L 5691 0 
L 5113 0 
L 5113 2094 
Q 5113 2597 4934 2840 
Q 4756 3084 4391 3084 
Q 3944 3084 3684 2787 
Q 3425 2491 3425 1978 
L 3425 0 
L 2847 0 
L 2847 2094 
Q 2847 2600 2669 2842 
Q 2491 3084 2119 3084 
Q 1678 3084 1418 2786 
Q 1159 2488 1159 1978 
L 1159 0 
L 581 0 
L 581 3500 
L 1159 3500 
L 1159 2956 
Q 1356 3278 1631 3431 
Q 1906 3584 2284 3584 
Q 2666 3584 2933 3390 
Q 3200 3197 3328 2828 
z
" transform="scale(0.015625)"/>
      </defs>
      <use xlink:href="#DejaVuSans-4c"/>
      <use xlink:href="#DejaVuSans-75" x="53.962891"/>
      <use xlink:href="#DejaVuSans-6d" x="117.341797"/>
      <use xlink:href="#DejaVuSans-69" x="214.753906"/>
      <use xlink:href="#DejaVuSans-6e" x="242.537109"/>
      <use xlink:href="#DejaVuSans-61" x="305.916016"/>
      <use xlink:href="#DejaVuSans-6e" x="367.195312"/>
      <use xlink:href="#DejaVuSans-63" x="430.574219"/>
      <use xlink:href="#DejaVuSans-65" x="485.554688"/>
     </g>
    </g>
    <g id="patch_109">
     <path d="M 1181.967187 115.074688 
L 1201.967187 115.074688 
L 1201.967187 108.074688 
L 1181.967187 108.074688 
z
" style="fill: #b5c8e1; stroke: #ffffff; stroke-linejoin: miter"/>
    </g>
    <g id="text_23">
     <!-- Saturation -->
     <g style="fill: #262626" transform="translate(1209.967187 115.074688)scale(0.1 -0.1)">
      <defs>
       <path id="DejaVuSans-53" d="M 3425 4513 
L 3425 3897 
Q 3066 4069 2747 4153 
Q 2428 4238 2131 4238 
Q 1616 4238 1336 4038 
Q 1056 3838 1056 3469 
Q 1056 3159 1242 3001 
Q 1428 2844 1947 2747 
L 2328 2669 
Q 3034 2534 3370 2195 
Q 3706 1856 3706 1288 
Q 3706 609 3251 259 
Q 2797 -91 1919 -91 
Q 1588 -91 1214 -16 
Q 841 59 441 206 
L 441 856 
Q 825 641 1194 531 
Q 1563 422 1919 422 
Q 2459 422 2753 634 
Q 3047 847 3047 1241 
Q 3047 1584 2836 1778 
Q 2625 1972 2144 2069 
L 1759 2144 
Q 1053 2284 737 2584 
Q 422 2884 422 3419 
Q 422 4038 858 4394 
Q 1294 4750 2059 4750 
Q 2388 4750 2728 4690 
Q 3069 4631 3425 4513 
z
" transform="scale(0.015625)"/>
      </defs>
      <use xlink:href="#DejaVuSans-53"/>
      <use xlink:href="#DejaVuSans-61" x="63.476562"/>
      <use xlink:href="#DejaVuSans-74" x="124.755859"/>
      <use xlink:href="#DejaVuSans-75" x="163.964844"/>
      <use xlink:href="#DejaVuSans-72" x="227.34375"/>
      <use xlink:href="#DejaVuSans-61" x="268.457031"/>
      <use xlink:href="#DejaVuSans-74" x="329.736328"/>
      <use xlink:href="#DejaVuSans-69" x="368.945312"/>
      <use xlink:href="#DejaVuSans-6f" x="396.728516"/>
      <use xlink:href="#DejaVuSans-6e" x="457.910156"/>
     </g>
    </g>
    <g id="patch_110">
     <path d="M 1181.967187 129.752813 
L 1201.967187 129.752813 
L 1201.967187 122.752813 
L 1181.967187 122.752813 
z
" style="fill: #e1812c; stroke: #ffffff; stroke-linejoin: miter"/>
    </g>
    <g id="text_24">
     <!-- Edges -->
     <g style="fill: #262626" transform="translate(1209.967187 129.752813)scale(0.1 -0.1)">
      <defs>
       <path id="DejaVuSans-45" d="M 628 4666 
L 3578 4666 
L 3578 4134 
L 1259 4134 
L 1259 2753 
L 3481 2753 
L 3481 2222 
L 1259 2222 
L 1259 531 
L 3634 531 
L 3634 0 
L 628 0 
L 628 4666 
z
" transform="scale(0.015625)"/>
       <path id="DejaVuSans-64" d="M 2906 2969 
L 2906 4863 
L 3481 4863 
L 3481 0 
L 2906 0 
L 2906 525 
Q 2725 213 2448 61 
Q 2172 -91 1784 -91 
Q 1150 -91 751 415 
Q 353 922 353 1747 
Q 353 2572 751 3078 
Q 1150 3584 1784 3584 
Q 2172 3584 2448 3432 
Q 2725 3281 2906 2969 
z
M 947 1747 
Q 947 1113 1208 752 
Q 1469 391 1925 391 
Q 2381 391 2643 752 
Q 2906 1113 2906 1747 
Q 2906 2381 2643 2742 
Q 2381 3103 1925 3103 
Q 1469 3103 1208 2742 
Q 947 2381 947 1747 
z
" transform="scale(0.015625)"/>
       <path id="DejaVuSans-67" d="M 2906 1791 
Q 2906 2416 2648 2759 
Q 2391 3103 1925 3103 
Q 1463 3103 1205 2759 
Q 947 2416 947 1791 
Q 947 1169 1205 825 
Q 1463 481 1925 481 
Q 2391 481 2648 825 
Q 2906 1169 2906 1791 
z
M 3481 434 
Q 3481 -459 3084 -895 
Q 2688 -1331 1869 -1331 
Q 1566 -1331 1297 -1286 
Q 1028 -1241 775 -1147 
L 775 -588 
Q 1028 -725 1275 -790 
Q 1522 -856 1778 -856 
Q 2344 -856 2625 -561 
Q 2906 -266 2906 331 
L 2906 616 
Q 2728 306 2450 153 
Q 2172 0 1784 0 
Q 1141 0 747 490 
Q 353 981 353 1791 
Q 353 2603 747 3093 
Q 1141 3584 1784 3584 
Q 2172 3584 2450 3431 
Q 2728 3278 2906 2969 
L 2906 3500 
L 3481 3500 
L 3481 434 
z
" transform="scale(0.015625)"/>
      </defs>
      <use xlink:href="#DejaVuSans-45"/>
      <use xlink:href="#DejaVuSans-64" x="63.183594"/>
      <use xlink:href="#DejaVuSans-67" x="126.660156"/>
      <use xlink:href="#DejaVuSans-65" x="190.136719"/>
      <use xlink:href="#DejaVuSans-73" x="251.660156"/>
     </g>
    </g>
    <g id="patch_111">
     <path d="M 1181.967187 144.430938 
L 1201.967187 144.430938 
L 1201.967187 137.430938 
L 1181.967187 137.430938 
z
" style="fill: #eebb89; stroke: #ffffff; stroke-linejoin: miter"/>
    </g>
    <g id="text_25">
     <!-- Itti &amp; Koch -->
     <g style="fill: #262626" transform="translate(1209.967187 144.430938)scale(0.1 -0.1)">
      <defs>
       <path id="DejaVuSans-26" d="M 1556 2509 
Q 1272 2256 1139 2004 
Q 1006 1753 1006 1478 
Q 1006 1022 1337 719 
Q 1669 416 2169 416 
Q 2466 416 2725 514 
Q 2984 613 3213 813 
L 1556 2509 
z
M 1997 2859 
L 3584 1234 
Q 3769 1513 3872 1830 
Q 3975 2147 3994 2503 
L 4575 2503 
Q 4538 2091 4375 1687 
Q 4213 1284 3922 891 
L 4794 0 
L 4006 0 
L 3559 459 
Q 3234 181 2878 45 
Q 2522 -91 2113 -91 
Q 1359 -91 881 339 
Q 403 769 403 1441 
Q 403 1841 612 2192 
Q 822 2544 1241 2853 
Q 1091 3050 1012 3245 
Q 934 3441 934 3628 
Q 934 4134 1281 4442 
Q 1628 4750 2203 4750 
Q 2463 4750 2720 4694 
Q 2978 4638 3244 4525 
L 3244 3956 
Q 2972 4103 2725 4179 
Q 2478 4256 2266 4256 
Q 1938 4256 1733 4082 
Q 1528 3909 1528 3634 
Q 1528 3475 1620 3314 
Q 1713 3153 1997 2859 
z
" transform="scale(0.015625)"/>
       <path id="DejaVuSans-4b" d="M 628 4666 
L 1259 4666 
L 1259 2694 
L 3353 4666 
L 4166 4666 
L 1850 2491 
L 4331 0 
L 3500 0 
L 1259 2247 
L 1259 0 
L 628 0 
L 628 4666 
z
" transform="scale(0.015625)"/>
       <path id="DejaVuSans-68" d="M 3513 2113 
L 3513 0 
L 2938 0 
L 2938 2094 
Q 2938 2591 2744 2837 
Q 2550 3084 2163 3084 
Q 1697 3084 1428 2787 
Q 1159 2491 1159 1978 
L 1159 0 
L 581 0 
L 581 4863 
L 1159 4863 
L 1159 2956 
Q 1366 3272 1645 3428 
Q 1925 3584 2291 3584 
Q 2894 3584 3203 3211 
Q 3513 2838 3513 2113 
z
" transform="scale(0.015625)"/>
      </defs>
      <use xlink:href="#DejaVuSans-49"/>
      <use xlink:href="#DejaVuSans-74" x="29.492188"/>
      <use xlink:href="#DejaVuSans-74" x="68.701172"/>
      <use xlink:href="#DejaVuSans-69" x="107.910156"/>
      <use xlink:href="#DejaVuSans-20" x="135.693359"/>
      <use xlink:href="#DejaVuSans-26" x="167.480469"/>
      <use xlink:href="#DejaVuSans-20" x="245.458984"/>
      <use xlink:href="#DejaVuSans-4b" x="277.246094"/>
      <use xlink:href="#DejaVuSans-6f" x="337.822266"/>
      <use xlink:href="#DejaVuSans-63" x="399.003906"/>
      <use xlink:href="#DejaVuSans-68" x="453.984375"/>
     </g>
    </g>
    <g id="patch_112">
     <path d="M 1181.967187 159.109063 
L 1201.967187 159.109063 
L 1201.967187 152.109063 
L 1181.967187 152.109063 
z
" style="fill: #3a923a; stroke: #ffffff; stroke-linejoin: miter"/>
    </g>
    <g id="text_26">
     <!-- GBVS -->
     <g style="fill: #262626" transform="translate(1209.967187 159.109063)scale(0.1 -0.1)">
      <defs>
       <path id="DejaVuSans-47" d="M 3809 666 
L 3809 1919 
L 2778 1919 
L 2778 2438 
L 4434 2438 
L 4434 434 
Q 4069 175 3628 42 
Q 3188 -91 2688 -91 
Q 1594 -91 976 548 
Q 359 1188 359 2328 
Q 359 3472 976 4111 
Q 1594 4750 2688 4750 
Q 3144 4750 3555 4637 
Q 3966 4525 4313 4306 
L 4313 3634 
Q 3963 3931 3569 4081 
Q 3175 4231 2741 4231 
Q 1884 4231 1454 3753 
Q 1025 3275 1025 2328 
Q 1025 1384 1454 906 
Q 1884 428 2741 428 
Q 3075 428 3337 486 
Q 3600 544 3809 666 
z
" transform="scale(0.015625)"/>
       <path id="DejaVuSans-42" d="M 1259 2228 
L 1259 519 
L 2272 519 
Q 2781 519 3026 730 
Q 3272 941 3272 1375 
Q 3272 1813 3026 2020 
Q 2781 2228 2272 2228 
L 1259 2228 
z
M 1259 4147 
L 1259 2741 
L 2194 2741 
Q 2656 2741 2882 2914 
Q 3109 3088 3109 3444 
Q 3109 3797 2882 3972 
Q 2656 4147 2194 4147 
L 1259 4147 
z
M 628 4666 
L 2241 4666 
Q 2963 4666 3353 4366 
Q 3744 4066 3744 3513 
Q 3744 3084 3544 2831 
Q 3344 2578 2956 2516 
Q 3422 2416 3680 2098 
Q 3938 1781 3938 1306 
Q 3938 681 3513 340 
Q 3088 0 2303 0 
L 628 0 
L 628 4666 
z
" transform="scale(0.015625)"/>
       <path id="DejaVuSans-56" d="M 1831 0 
L 50 4666 
L 709 4666 
L 2188 738 
L 3669 4666 
L 4325 4666 
L 2547 0 
L 1831 0 
z
" transform="scale(0.015625)"/>
      </defs>
      <use xlink:href="#DejaVuSans-47"/>
      <use xlink:href="#DejaVuSans-42" x="77.490234"/>
      <use xlink:href="#DejaVuSans-56" x="142.96875"/>
      <use xlink:href="#DejaVuSans-53" x="211.376953"/>
     </g>
    </g>
    <g id="patch_113">
     <path d="M 1181.967187 173.787188 
L 1201.967187 173.787188 
L 1201.967187 166.787188 
L 1181.967187 166.787188 
z
" style="fill: #9fd495; stroke: #ffffff; stroke-linejoin: miter"/>
    </g>
    <g id="text_27">
     <!-- ICF -->
     <g style="fill: #262626" transform="translate(1209.967187 173.787188)scale(0.1 -0.1)">
      <defs>
       <path id="DejaVuSans-46" d="M 628 4666 
L 3309 4666 
L 3309 4134 
L 1259 4134 
L 1259 2759 
L 3109 2759 
L 3109 2228 
L 1259 2228 
L 1259 0 
L 628 0 
L 628 4666 
z
" transform="scale(0.015625)"/>
      </defs>
      <use xlink:href="#DejaVuSans-49"/>
      <use xlink:href="#DejaVuSans-43" x="29.492188"/>
      <use xlink:href="#DejaVuSans-46" x="99.316406"/>
     </g>
    </g>
    <g id="patch_114">
     <path d="M 1181.967187 188.465313 
L 1201.967187 188.465313 
L 1201.967187 181.465313 
L 1181.967187 181.465313 
z
" style="fill: #c03d3e; stroke: #ffffff; stroke-linejoin: miter"/>
    </g>
    <g id="text_28">
     <!-- DeepGaze I -->
     <g style="fill: #262626" transform="translate(1209.967187 188.465313)scale(0.1 -0.1)">
      <defs>
       <path id="DejaVuSans-44" d="M 1259 4147 
L 1259 519 
L 2022 519 
Q 2988 519 3436 956 
Q 3884 1394 3884 2338 
Q 3884 3275 3436 3711 
Q 2988 4147 2022 4147 
L 1259 4147 
z
M 628 4666 
L 1925 4666 
Q 3281 4666 3915 4102 
Q 4550 3538 4550 2338 
Q 4550 1131 3912 565 
Q 3275 0 1925 0 
L 628 0 
L 628 4666 
z
" transform="scale(0.015625)"/>
       <path id="DejaVuSans-7a" d="M 353 3500 
L 3084 3500 
L 3084 2975 
L 922 459 
L 3084 459 
L 3084 0 
L 275 0 
L 275 525 
L 2438 3041 
L 353 3041 
L 353 3500 
z
" transform="scale(0.015625)"/>
      </defs>
      <use xlink:href="#DejaVuSans-44"/>
      <use xlink:href="#DejaVuSans-65" x="77.001953"/>
      <use xlink:href="#DejaVuSans-65" x="138.525391"/>
      <use xlink:href="#DejaVuSans-70" x="200.048828"/>
      <use xlink:href="#DejaVuSans-47" x="263.525391"/>
      <use xlink:href="#DejaVuSans-61" x="341.015625"/>
      <use xlink:href="#DejaVuSans-7a" x="402.294922"/>
      <use xlink:href="#DejaVuSans-65" x="454.785156"/>
      <use xlink:href="#DejaVuSans-20" x="516.308594"/>
      <use xlink:href="#DejaVuSans-49" x="548.095703"/>
     </g>
    </g>
    <g id="patch_115">
     <path d="M 1181.967187 203.143438 
L 1201.967187 203.143438 
L 1201.967187 196.143438 
L 1181.967187 196.143438 
z
" style="fill: #f2a5a3; stroke: #ffffff; stroke-linejoin: miter"/>
    </g>
    <g id="text_29">
     <!-- DeepGaze II -->
     <g style="fill: #262626" transform="translate(1209.967187 203.143438)scale(0.1 -0.1)">
      <use xlink:href="#DejaVuSans-44"/>
      <use xlink:href="#DejaVuSans-65" x="77.001953"/>
      <use xlink:href="#DejaVuSans-65" x="138.525391"/>
      <use xlink:href="#DejaVuSans-70" x="200.048828"/>
      <use xlink:href="#DejaVuSans-47" x="263.525391"/>
      <use xlink:href="#DejaVuSans-61" x="341.015625"/>
      <use xlink:href="#DejaVuSans-7a" x="402.294922"/>
      <use xlink:href="#DejaVuSans-65" x="454.785156"/>
      <use xlink:href="#DejaVuSans-20" x="516.308594"/>
      <use xlink:href="#DejaVuSans-49" x="548.095703"/>
      <use xlink:href="#DejaVuSans-49" x="577.587891"/>
     </g>
    </g>
    <g id="patch_116">
     <path d="M 1181.967187 217.821563 
L 1201.967187 217.821563 
L 1201.967187 210.821563 
L 1181.967187 210.821563 
z
" style="fill: #9372b2; stroke: #ffffff; stroke-linejoin: miter"/>
    </g>
    <g id="text_30">
     <!-- DeepGaze IIE -->
     <g style="fill: #262626" transform="translate(1209.967187 217.821563)scale(0.1 -0.1)">
      <use xlink:href="#DejaVuSans-44"/>
      <use xlink:href="#DejaVuSans-65" x="77.001953"/>
      <use xlink:href="#DejaVuSans-65" x="138.525391"/>
      <use xlink:href="#DejaVuSans-70" x="200.048828"/>
      <use xlink:href="#DejaVuSans-47" x="263.525391"/>
      <use xlink:href="#DejaVuSans-61" x="341.015625"/>
      <use xlink:href="#DejaVuSans-7a" x="402.294922"/>
      <use xlink:href="#DejaVuSans-65" x="454.785156"/>
      <use xlink:href="#DejaVuSans-20" x="516.308594"/>
      <use xlink:href="#DejaVuSans-49" x="548.095703"/>
      <use xlink:href="#DejaVuSans-49" x="577.587891"/>
      <use xlink:href="#DejaVuSans-45" x="607.080078"/>
     </g>
    </g>
    <g id="patch_117">
     <path d="M 1181.967187 232.499688 
L 1201.967187 232.499688 
L 1201.967187 225.499688 
L 1181.967187 225.499688 
z
" style="fill: #c4b5d0; stroke: #ffffff; stroke-linejoin: miter"/>
    </g>
    <g id="text_31">
     <!-- ResNet Stage 4 -->
     <g style="fill: #262626" transform="translate(1209.967187 232.499688)scale(0.1 -0.1)">
      <defs>
       <path id="DejaVuSans-4e" d="M 628 4666 
L 1478 4666 
L 3547 763 
L 3547 4666 
L 4159 4666 
L 4159 0 
L 3309 0 
L 1241 3903 
L 1241 0 
L 628 0 
L 628 4666 
z
" transform="scale(0.015625)"/>
      </defs>
      <use xlink:href="#DejaVuSans-52"/>
      <use xlink:href="#DejaVuSans-65" x="64.982422"/>
      <use xlink:href="#DejaVuSans-73" x="126.505859"/>
      <use xlink:href="#DejaVuSans-4e" x="178.605469"/>
      <use xlink:href="#DejaVuSans-65" x="253.410156"/>
      <use xlink:href="#DejaVuSans-74" x="314.933594"/>
      <use xlink:href="#DejaVuSans-20" x="354.142578"/>
      <use xlink:href="#DejaVuSans-53" x="385.929688"/>
      <use xlink:href="#DejaVuSans-74" x="449.40625"/>
      <use xlink:href="#DejaVuSans-61" x="488.615234"/>
      <use xlink:href="#DejaVuSans-67" x="549.894531"/>
      <use xlink:href="#DejaVuSans-65" x="613.371094"/>
      <use xlink:href="#DejaVuSans-20" x="674.894531"/>
      <use xlink:href="#DejaVuSans-34" x="706.681641"/>
     </g>
    </g>
   </g>
  </g>
 </g>
 <defs>
  <clipPath id="pd6c07bdc3f">
   <rect x="180" y="69.12" width="1116" height="443.52"/>
  </clipPath>
 </defs>
</svg>
